<svg width="183" height="183" viewBox="0 0 183 183" fill="none" xmlns="http://www.w3.org/2000/svg">
<path d="M91.3906 179.781C140.207 179.781 179.781 140.208 179.781 91.3907C179.781 42.5739 140.207 3 91.3906 3C42.5738 3 3 42.5739 3 91.3907C3 140.208 42.5738 179.781 91.3906 179.781Z" fill="#FBB03B" stroke="white" stroke-width="5" stroke-miterlimit="10"/>
<path d="M69.9248 58.5554H61.5844C57.8241 58.5554 54.7759 61.6037 54.7759 65.3639V73.7043C54.7759 77.4646 57.8241 80.5128 61.5844 80.5128H69.9248C73.685 80.5128 76.7333 77.4646 76.7333 73.7043V65.3639C76.7333 61.6037 73.685 58.5554 69.9248 58.5554Z" fill="#FBB03B" stroke="white" stroke-width="5" stroke-miterlimit="10"/>
<path d="M121.197 58.5554H112.856C109.096 58.5554 106.048 61.6037 106.048 65.3639V73.7043C106.048 77.4646 109.096 80.5128 112.856 80.5128H121.197C124.957 80.5128 128.005 77.4646 128.005 73.7043V65.3639C128.005 61.6037 124.957 58.5554 121.197 58.5554Z" fill="#FBB03B" stroke="white" stroke-width="5" stroke-miterlimit="10"/>
<path d="M69.9248 102.269H61.5844C57.8241 102.269 54.7759 105.317 54.7759 109.077V117.417C54.7759 121.178 57.8241 124.226 61.5844 124.226H69.9248C73.685 124.226 76.7333 121.178 76.7333 117.417V109.077C76.7333 105.317 73.685 102.269 69.9248 102.269Z" fill="#FBB03B" stroke="white" stroke-width="5" stroke-miterlimit="10"/>
<path d="M121.525 102.269H113.185C109.425 102.269 106.376 105.317 106.376 109.077V117.418C106.376 121.178 109.425 124.226 113.185 124.226H121.525C125.286 124.226 128.334 121.178 128.334 117.418V109.077C128.334 105.317 125.286 102.269 121.525 102.269Z" fill="#FBB03B" stroke="white" stroke-width="5" stroke-miterlimit="10"/>
</svg>
