<svg width="360" height="430" viewBox="0 0 360 430" fill="none" xmlns="http://www.w3.org/2000/svg">
<path d="M80.4255 0.0714111H342.875C347.19 0.0714111 351.329 1.78568 354.38 4.83704C357.432 7.88839 359.146 12.0269 359.146 16.3422V413.659C359.146 417.975 357.432 422.113 354.38 425.165C351.329 428.216 347.19 429.93 342.875 429.93H80.4255C76.1102 429.93 71.9717 428.216 68.9204 425.165C65.869 422.113 64.1548 417.975 64.1548 413.659V16.3422C64.1548 12.0269 65.869 7.88839 68.9204 4.83704C71.9717 1.78568 76.1102 0.0714111 80.4255 0.0714111Z" fill="#6756D8"/>
<path d="M80.4255 0.0714111H342.875C347.19 0.0714111 351.329 1.78568 354.38 4.83704C357.432 7.88839 359.146 12.0269 359.146 16.3422V413.659C359.146 417.975 357.432 422.113 354.38 425.165C351.329 428.216 347.19 429.93 342.875 429.93H80.4255C76.1102 429.93 71.9717 428.216 68.9204 425.165C65.869 422.113 64.1548 417.975 64.1548 413.659V16.3422C64.1548 12.0269 65.869 7.88839 68.9204 4.83704C71.9717 1.78568 76.1102 0.0714111 80.4255 0.0714111Z" fill="#6756D8"/>
<path d="M72.6277 0.0714111H335.077C337.214 0.0714111 339.33 0.492256 341.304 1.30994C343.278 2.12762 345.072 3.32616 346.582 4.83704C348.093 6.34791 349.292 8.14154 350.109 10.1156C350.927 12.0897 351.348 14.2055 351.348 16.3422V413.659C351.348 417.975 349.634 422.113 346.582 425.165C343.531 428.216 339.393 429.93 335.077 429.93H72.6276C68.3124 429.93 64.1739 428.216 61.1225 425.165C58.0712 422.113 56.3569 417.975 56.3569 413.659V16.3422C56.3569 12.0269 58.0712 7.88839 61.1225 4.83704C64.1739 1.78568 68.3124 0.0714111 72.6277 0.0714111Z" fill="#6756D8"/>
<path d="M72.6277 0.0714111H335.077C337.214 0.0714111 339.33 0.492256 341.304 1.30994C343.278 2.12762 345.072 3.32616 346.582 4.83704C348.093 6.34791 349.292 8.14154 350.109 10.1156C350.927 12.0897 351.348 14.2055 351.348 16.3422V413.659C351.348 417.975 349.634 422.113 346.582 425.165C343.531 428.216 339.393 429.93 335.077 429.93H72.6276C68.3124 429.93 64.1739 428.216 61.1225 425.165C58.0712 422.113 56.3569 417.975 56.3569 413.659V16.3422C56.3569 12.0269 58.0712 7.88839 61.1225 4.83704C64.1739 1.78568 68.3124 0.0714111 72.6277 0.0714111Z" fill="#6756D8"/>
<path d="M351.348 18.7396H56.3569V391.872H351.348V18.7396Z" fill="#FAFAFA"/>
<path opacity="0.1" d="M351.348 18.7396H56.3569V391.872H351.348V18.7396Z" fill="#6756D8"/>
<path opacity="0.48" d="M160.941 19.671L93.438 392.803H144.996L212.5 19.671H160.941Z" fill="#FAFAFA"/>
<path opacity="0.48" d="M227.817 18.74L160.313 391.895H186.081L253.584 18.74H227.817Z" fill="#FAFAFA"/>
<path d="M203.841 421.76C209.96 421.76 214.921 416.799 214.921 410.68C214.921 404.561 209.96 399.6 203.841 399.6C197.721 399.6 192.761 404.561 192.761 410.68C192.761 416.799 197.721 421.76 203.841 421.76Z" fill="#6756D8"/>
<path opacity="0.5" d="M203.841 421.76C209.96 421.76 214.921 416.799 214.921 410.68C214.921 404.561 209.96 399.6 203.841 399.6C197.721 399.6 192.761 404.561 192.761 410.68C192.761 416.799 197.721 421.76 203.841 421.76Z" fill="black"/>
<path d="M206.401 8.66064C206.401 9.16706 206.251 9.66218 205.97 10.0833C205.688 10.5043 205.288 10.8324 204.821 11.0262C204.353 11.22 203.838 11.2708 203.341 11.172C202.845 11.0732 202.388 10.8293 202.03 10.4712C201.672 10.1131 201.428 9.65684 201.329 9.16016C201.231 8.66347 201.281 8.14865 201.475 7.68079C201.669 7.21292 201.997 6.81309 202.418 6.53174C202.839 6.25039 203.334 6.10022 203.841 6.10022C204.177 6.10022 204.51 6.16637 204.821 6.29504C205.131 6.42372 205.414 6.61233 205.651 6.8501C205.889 7.08786 206.078 7.37013 206.206 7.68079C206.335 7.99144 206.401 8.32439 206.401 8.66064Z" fill="#6756D8"/>
<path opacity="0.5" d="M206.401 8.66064C206.401 9.16706 206.251 9.66218 205.97 10.0833C205.688 10.5043 205.288 10.8324 204.821 11.0262C204.353 11.22 203.838 11.2708 203.341 11.172C202.845 11.0732 202.388 10.8293 202.03 10.4712C201.672 10.1131 201.428 9.65684 201.329 9.16016C201.231 8.66347 201.281 8.14865 201.475 7.68079C201.669 7.21292 201.997 6.81309 202.418 6.53174C202.839 6.25039 203.334 6.10022 203.841 6.10022C204.177 6.10022 204.51 6.16637 204.821 6.29504C205.131 6.42372 205.414 6.61233 205.651 6.8501C205.889 7.08786 206.078 7.37013 206.206 7.68079C206.335 7.99144 206.401 8.32439 206.401 8.66064Z" fill="black"/>
<path d="M196.951 289.313C196.962 289.236 196.962 289.158 196.951 289.08C197.603 285.333 198.161 281.562 198.627 277.744C205.214 285.076 210.941 286.939 215.037 286.939C215.471 286.963 215.907 286.963 216.341 286.939C224.371 286.147 231.145 278.28 234.497 265.989C234.563 265.746 234.577 265.491 234.537 265.242C234.496 264.994 234.404 264.756 234.264 264.546C233.976 264.105 233.538 263.782 233.031 263.638C227.341 262.082 221.378 261.807 215.569 262.833C209.761 263.86 204.253 266.162 199.442 269.574C199.721 265.989 199.884 262.405 199.93 258.797C201.229 259.024 202.545 259.141 203.864 259.146C217.132 259.146 225.349 247.344 225.745 246.762C225.893 246.538 225.984 246.28 226.008 246.012C226.032 245.744 225.99 245.474 225.884 245.226C225.777 244.955 225.613 244.709 225.405 244.504C225.196 244.3 224.947 244.141 224.674 244.039C216.387 240.92 209.66 240.64 204.702 243.247C201.547 244.963 199.123 247.768 197.882 251.138C194.376 243.499 189.065 236.828 182.406 231.698C175.748 226.568 167.942 223.135 159.661 221.693C159.424 221.637 159.178 221.638 158.941 221.695C158.705 221.753 158.486 221.866 158.301 222.025C158.117 222.184 157.974 222.385 157.882 222.61C157.791 222.836 157.754 223.08 157.776 223.322C158.614 235.357 160.848 250.045 170.764 257.074C174.732 259.792 179.457 261.186 184.265 261.054C188.376 260.965 192.457 260.315 196.392 259.123C196.186 267.7 195.408 276.254 194.065 284.727C188.548 278.466 174.512 264.546 155.355 259.751C155.142 259.685 154.917 259.665 154.696 259.695C154.475 259.724 154.263 259.802 154.074 259.921C153.886 260.041 153.726 260.2 153.605 260.388C153.485 260.575 153.407 260.787 153.376 261.008C151.956 271.366 154.424 279.769 160.476 285.309C165.504 289.965 172.719 292.293 181.425 292.293C185.288 292.257 189.139 291.852 192.924 291.082C191.621 298.182 190.014 305.048 188.269 311.752C182.24 306.957 164.805 294.83 148.185 299.881C147.966 299.953 147.766 300.074 147.6 300.236C147.435 300.397 147.308 300.594 147.231 300.812C147.152 301.045 147.123 301.292 147.147 301.537C147.171 301.782 147.247 302.019 147.371 302.232C153.516 313.684 159.661 320.039 166.667 322.25C168.492 322.817 170.39 323.107 172.3 323.111C177.243 322.906 182.051 321.439 186.267 318.852C183.636 327.65 180.75 335.844 177.91 343.153C173.162 338.719 167.379 335.544 161.09 333.918C154.8 332.291 148.203 332.265 141.901 333.842C141.706 333.884 141.523 333.965 141.359 334.078C141.196 334.192 141.057 334.336 140.95 334.503C140.843 334.671 140.769 334.857 140.734 335.053C140.699 335.249 140.703 335.449 140.745 335.643C140.75 335.664 140.755 335.684 140.76 335.704C141.735 339.478 143.577 342.973 146.138 345.91C148.7 348.848 151.912 351.147 155.518 352.627C158.152 353.717 160.976 354.279 163.828 354.279C167.6 354.25 171.302 353.257 174.582 351.393C170.87 360.461 166.682 369.326 162.035 377.952C161.837 378.382 161.806 378.871 161.948 379.322C162.09 379.774 162.395 380.157 162.803 380.396C163.108 380.595 163.464 380.7 163.828 380.699C164.099 380.707 164.367 380.643 164.605 380.512C164.842 380.38 165.04 380.188 165.178 379.954C170.811 369.393 175.825 358.511 180.191 347.366C180.282 347.188 180.352 347.001 180.401 346.807C181.27 344.619 182.131 342.361 182.985 340.034C188.595 346.505 195.415 350.09 202.258 350.09H204.47C208.263 349.711 211.846 348.164 214.723 345.662C217.6 343.161 219.629 339.828 220.531 336.123C220.596 335.706 220.528 335.278 220.336 334.902C220.143 334.526 219.837 334.22 219.46 334.028C214.328 331.152 208.587 329.531 202.709 329.301C196.83 329.07 190.98 330.235 185.638 332.701C187.477 327.371 189.27 321.715 190.922 315.849C191.069 315.611 191.15 315.337 191.155 315.057C191.597 313.405 192.063 311.752 192.482 310.053C199.209 317.362 205.424 320.947 211.406 320.947C218.669 320.947 225.372 315.57 231.82 304.653C231.995 304.246 232.023 303.792 231.899 303.368C231.776 302.943 231.51 302.575 231.145 302.325C217.621 293.014 201.444 299.369 194.228 303.093C195.252 298.732 196.152 294.294 196.928 289.778L196.951 289.313Z" fill="#6756D8"/>
<path d="M196.951 289.313C196.962 289.236 196.962 289.158 196.951 289.08C197.603 285.333 198.161 281.562 198.627 277.744C205.214 285.076 210.941 286.939 215.037 286.939C215.471 286.963 215.907 286.963 216.341 286.939C224.371 286.147 231.145 278.28 234.497 265.989C234.563 265.746 234.577 265.491 234.537 265.242C234.496 264.994 234.404 264.756 234.264 264.546C233.976 264.105 233.538 263.782 233.031 263.638C227.341 262.082 221.378 261.807 215.569 262.833C209.761 263.86 204.253 266.162 199.442 269.574C199.721 265.989 199.884 262.405 199.93 258.797C201.229 259.024 202.545 259.141 203.864 259.146C217.132 259.146 225.349 247.344 225.745 246.762C225.893 246.538 225.984 246.28 226.008 246.012C226.032 245.744 225.99 245.474 225.884 245.226C225.777 244.955 225.613 244.709 225.405 244.504C225.196 244.3 224.947 244.141 224.674 244.039C216.387 240.92 209.66 240.64 204.702 243.247C201.547 244.963 199.123 247.768 197.882 251.138C194.376 243.499 189.065 236.828 182.406 231.698C175.748 226.568 167.942 223.135 159.661 221.693C159.424 221.637 159.178 221.638 158.941 221.695C158.705 221.753 158.486 221.866 158.301 222.025C158.117 222.184 157.974 222.385 157.882 222.61C157.791 222.836 157.754 223.08 157.776 223.322C158.614 235.357 160.848 250.045 170.764 257.074C174.732 259.792 179.457 261.186 184.265 261.054C188.376 260.965 192.457 260.315 196.392 259.123C196.186 267.7 195.408 276.254 194.065 284.727C188.548 278.466 174.512 264.546 155.355 259.751C155.142 259.685 154.917 259.665 154.696 259.695C154.475 259.724 154.263 259.802 154.074 259.921C153.886 260.041 153.726 260.2 153.605 260.388C153.485 260.575 153.407 260.787 153.376 261.008C151.956 271.366 154.424 279.769 160.476 285.309C165.504 289.965 172.719 292.293 181.425 292.293C185.288 292.257 189.139 291.852 192.924 291.082C191.621 298.182 190.014 305.048 188.269 311.752C182.24 306.957 164.805 294.83 148.185 299.881C147.966 299.953 147.766 300.074 147.6 300.236C147.435 300.397 147.308 300.594 147.231 300.812C147.152 301.045 147.123 301.292 147.147 301.537C147.171 301.782 147.247 302.019 147.371 302.232C153.516 313.684 159.661 320.039 166.667 322.25C168.492 322.817 170.39 323.107 172.3 323.111C177.243 322.906 182.051 321.439 186.267 318.852C183.636 327.65 180.75 335.844 177.91 343.153C173.162 338.719 167.379 335.544 161.09 333.918C154.8 332.291 148.203 332.265 141.901 333.842C141.706 333.884 141.523 333.965 141.359 334.078C141.196 334.192 141.057 334.336 140.95 334.503C140.843 334.671 140.769 334.857 140.734 335.053C140.699 335.249 140.703 335.449 140.745 335.643C140.75 335.664 140.755 335.684 140.76 335.704C141.735 339.478 143.577 342.973 146.138 345.91C148.7 348.848 151.912 351.147 155.518 352.627C158.152 353.717 160.976 354.279 163.828 354.279C167.6 354.25 171.302 353.257 174.582 351.393C170.87 360.461 166.682 369.326 162.035 377.952C161.837 378.382 161.806 378.871 161.948 379.322C162.09 379.774 162.395 380.157 162.803 380.396C163.108 380.595 163.464 380.7 163.828 380.699C164.099 380.707 164.367 380.643 164.605 380.512C164.842 380.38 165.04 380.188 165.178 379.954C170.811 369.393 175.825 358.511 180.191 347.366C180.282 347.188 180.352 347.001 180.401 346.807C181.27 344.619 182.131 342.361 182.985 340.034C188.595 346.505 195.415 350.09 202.258 350.09H204.47C208.263 349.711 211.846 348.164 214.723 345.662C217.6 343.161 219.629 339.828 220.531 336.123C220.596 335.706 220.528 335.278 220.336 334.902C220.143 334.526 219.837 334.22 219.46 334.028C214.328 331.152 208.587 329.531 202.709 329.301C196.83 329.07 190.98 330.235 185.638 332.701C187.477 327.371 189.27 321.715 190.922 315.849C191.069 315.611 191.15 315.337 191.155 315.057C191.597 313.405 192.063 311.752 192.482 310.053C199.209 317.362 205.424 320.947 211.406 320.947C218.669 320.947 225.372 315.57 231.82 304.653C231.995 304.246 232.023 303.792 231.899 303.368C231.776 302.943 231.51 302.575 231.145 302.325C217.621 293.014 201.444 299.369 194.228 303.093C195.252 298.732 196.152 294.294 196.928 289.778L196.951 289.313Z" fill="#6756D8"/>
<path d="M112.548 336.496C115.058 337.284 117.669 337.699 120.299 337.73C123.639 337.714 126.936 336.985 129.971 335.593C133.006 334.201 135.709 332.177 137.9 329.656C140.09 327.135 141.717 324.176 142.672 320.976C143.627 317.776 143.887 314.409 143.437 311.1C143.358 310.739 143.148 310.419 142.847 310.204C142.546 309.989 142.175 309.893 141.807 309.937C135.373 310.648 129.178 312.783 123.67 316.185C118.163 319.587 113.481 324.171 109.964 329.606C107.031 321.552 104.285 312.986 101.98 304.118C105.742 306.342 109.997 307.598 114.364 307.772C116.159 307.778 117.943 307.495 119.648 306.934C128.702 303.931 134.917 293.131 140.294 281.888C140.392 281.684 140.442 281.461 140.442 281.236C140.442 281.01 140.392 280.788 140.294 280.584C140.215 280.382 140.09 280.2 139.928 280.055C139.767 279.91 139.573 279.804 139.363 279.746C121.65 274.695 105.542 292.013 100.467 298.205C98.6899 290.697 97.3223 283.097 96.3705 275.44C100.123 276.158 103.933 276.532 107.753 276.557C117.064 276.557 124.42 274.09 129.401 269.225C135.313 263.476 137.338 254.863 135.29 244.342C135.25 244.139 135.168 243.946 135.049 243.777C134.93 243.607 134.776 243.465 134.598 243.36C134.42 243.254 134.221 243.188 134.016 243.164C133.81 243.141 133.602 243.161 133.404 243.224C114.503 248.252 101.166 262.312 95.7188 268.969C95.7188 267.596 95.486 266.222 95.3929 264.849C95.3647 264.504 95.226 264.178 94.9972 263.918C94.5254 261.339 93.4818 258.898 91.9431 256.775C90.4044 254.653 88.4096 252.902 86.1053 251.651C80.9378 249.09 74.1176 249.463 65.8775 252.745C65.6336 252.84 65.4135 252.987 65.2325 253.176C65.0516 253.365 64.9142 253.591 64.83 253.839C64.7467 254.079 64.7222 254.335 64.7587 254.586C64.7952 254.837 64.8915 255.076 65.0395 255.282C65.4585 255.841 74.3504 267.526 87.6649 267.526C89.1026 267.522 90.5366 267.381 91.9479 267.107C92.2272 270.893 92.623 274.688 93.1351 278.49C88.1185 275.079 82.4174 272.806 76.4306 271.829C70.4439 270.852 64.3159 271.195 58.4754 272.833C58.2452 272.89 58.0292 272.994 57.841 273.138C57.6527 273.282 57.4962 273.464 57.3814 273.671C57.2647 273.869 57.1899 274.089 57.1619 274.317C57.1339 274.546 57.1531 274.777 57.2185 274.998C61.3385 287.521 68.6708 295.412 76.8644 296.087C77.2364 296.111 77.6096 296.111 77.9817 296.087C82.1716 296.087 87.9676 294.178 94.2757 286.45C95.8179 295.16 97.8383 303.777 100.328 312.264C92.8324 308.587 75.8867 302.255 62.6187 311.892C62.2429 312.13 61.9767 312.506 61.8788 312.94C61.7808 313.374 61.8591 313.828 62.0965 314.204L62.1066 314.22C69.2527 325.23 76.2823 330.514 83.5914 330.514H83.7776C89.8529 330.514 95.9748 326.72 102.399 319.155C105.03 327.441 107.916 335.309 110.872 342.618C103.517 337.799 94.904 338.568 84.2897 344.946C84.0596 345.092 83.8637 345.287 83.7151 345.515C83.5666 345.744 83.4688 346.002 83.4284 346.272C83.4 346.526 83.4363 346.783 83.534 347.019C83.6317 347.255 83.7876 347.463 83.9871 347.622C84.5225 348.041 93.5773 354.862 103.703 354.862C107.591 354.899 111.401 353.772 114.643 351.626C120.372 364.943 126.974 377.866 134.405 390.313C134.554 390.547 134.761 390.738 135.006 390.869C135.25 391 135.525 391.064 135.802 391.057C136.177 391.061 136.543 390.947 136.849 390.732C137.259 390.48 137.553 390.079 137.671 389.614C137.788 389.149 137.719 388.656 137.478 388.241C127.735 371.72 119.395 354.411 112.548 336.496Z" fill="#6756D8"/>
<path opacity="0.5" d="M112.548 336.496C115.058 337.284 117.669 337.699 120.299 337.73C123.639 337.714 126.936 336.985 129.971 335.593C133.006 334.201 135.709 332.177 137.9 329.656C140.09 327.135 141.717 324.176 142.672 320.976C143.627 317.776 143.887 314.409 143.437 311.1C143.358 310.739 143.148 310.419 142.847 310.204C142.546 309.989 142.175 309.893 141.807 309.937C135.373 310.648 129.178 312.783 123.67 316.185C118.163 319.587 113.481 324.171 109.964 329.606C107.031 321.552 104.285 312.986 101.98 304.118C105.742 306.342 109.997 307.598 114.364 307.772C116.159 307.778 117.943 307.495 119.648 306.934C128.702 303.931 134.917 293.131 140.294 281.888C140.392 281.684 140.442 281.461 140.442 281.236C140.442 281.01 140.392 280.788 140.294 280.584C140.215 280.382 140.09 280.2 139.928 280.055C139.767 279.91 139.573 279.804 139.363 279.746C121.65 274.695 105.542 292.013 100.467 298.205C98.6899 290.697 97.3223 283.097 96.3705 275.44C100.123 276.158 103.933 276.532 107.753 276.557C117.064 276.557 124.42 274.09 129.401 269.225C135.313 263.476 137.338 254.863 135.29 244.342C135.25 244.139 135.168 243.946 135.049 243.777C134.93 243.607 134.776 243.465 134.598 243.36C134.42 243.254 134.221 243.188 134.016 243.164C133.81 243.141 133.602 243.161 133.404 243.224C114.503 248.252 101.166 262.312 95.7188 268.969C95.7188 267.596 95.486 266.222 95.3929 264.849C95.3647 264.504 95.226 264.178 94.9972 263.918C94.5254 261.339 93.4818 258.898 91.9431 256.775C90.4044 254.653 88.4096 252.902 86.1053 251.651C80.9378 249.09 74.1176 249.463 65.8775 252.745C65.6336 252.84 65.4135 252.987 65.2325 253.176C65.0516 253.365 64.9142 253.591 64.83 253.839C64.7467 254.079 64.7222 254.335 64.7587 254.586C64.7952 254.837 64.8915 255.076 65.0395 255.282C65.4585 255.841 74.3504 267.526 87.6649 267.526C89.1026 267.522 90.5366 267.381 91.9479 267.107C92.2272 270.893 92.623 274.688 93.1351 278.49C88.1185 275.079 82.4174 272.806 76.4306 271.829C70.4439 270.852 64.3159 271.195 58.4754 272.833C58.2452 272.89 58.0292 272.994 57.841 273.138C57.6527 273.282 57.4962 273.464 57.3814 273.671C57.2647 273.869 57.1899 274.089 57.1619 274.317C57.1339 274.546 57.1531 274.777 57.2185 274.998C61.3385 287.521 68.6708 295.412 76.8644 296.087C77.2364 296.111 77.6096 296.111 77.9817 296.087C82.1716 296.087 87.9676 294.178 94.2757 286.45C95.8179 295.16 97.8383 303.777 100.328 312.264C92.8324 308.587 75.8867 302.255 62.6187 311.892C62.2429 312.13 61.9767 312.506 61.8788 312.94C61.7808 313.374 61.8591 313.828 62.0965 314.204L62.1066 314.22C69.2527 325.23 76.2823 330.514 83.5914 330.514H83.7776C89.8529 330.514 95.9748 326.72 102.399 319.155C105.03 327.441 107.916 335.309 110.872 342.618C103.517 337.799 94.904 338.568 84.2897 344.946C84.0596 345.092 83.8637 345.287 83.7151 345.515C83.5666 345.744 83.4688 346.002 83.4284 346.272C83.4 346.526 83.4363 346.783 83.534 347.019C83.6317 347.255 83.7876 347.463 83.9871 347.622C84.5225 348.041 93.5773 354.862 103.703 354.862C107.591 354.899 111.401 353.772 114.643 351.626C120.372 364.943 126.974 377.866 134.405 390.313C134.554 390.547 134.761 390.738 135.006 390.869C135.25 391 135.525 391.064 135.802 391.057C136.177 391.061 136.543 390.947 136.849 390.732C137.259 390.48 137.553 390.079 137.671 389.614C137.788 389.149 137.719 388.656 137.478 388.241C127.735 371.72 119.395 354.411 112.548 336.496Z" fill="white"/>
<path d="M176.56 429.93H121.114L116.924 372.599H180.75L176.56 429.93Z" fill="#6756D8"/>
<path d="M184.87 368.735H112.781V378.441H184.87V368.735Z" fill="#6756D8"/>
<path d="M24.1183 90.8523H152.119C154.256 90.8523 156.372 91.2731 158.346 92.0908C160.32 92.9085 162.114 94.1069 163.624 95.6178C165.135 97.1287 166.334 98.9224 167.152 100.896C167.969 102.871 168.39 104.986 168.39 107.123V413.659C168.39 417.975 166.676 422.113 163.624 425.165C160.573 428.216 156.435 429.93 152.119 429.93H24.1184C19.8031 429.93 15.6646 428.216 12.6132 425.165C9.56189 422.113 7.84766 417.975 7.84766 413.659V107.123C7.84766 102.808 9.56188 98.6691 12.6132 95.6178C15.6646 92.5665 19.8031 90.8523 24.1183 90.8523Z" fill="#6756D8"/>
<path d="M24.1183 90.8523H152.119C154.256 90.8523 156.372 91.2731 158.346 92.0908C160.32 92.9085 162.114 94.1069 163.624 95.6178C165.135 97.1287 166.334 98.9224 167.152 100.896C167.969 102.871 168.39 104.986 168.39 107.123V413.659C168.39 417.975 166.676 422.113 163.624 425.165C160.573 428.216 156.435 429.93 152.119 429.93H24.1184C19.8031 429.93 15.6646 428.216 12.6132 425.165C9.56189 422.113 7.84766 417.975 7.84766 413.659V107.123C7.84766 102.808 9.56188 98.6691 12.6132 95.6178C15.6646 92.5665 19.8031 90.8523 24.1183 90.8523Z" fill="#6756D8"/>
<path d="M16.3205 90.8523H144.322C148.637 90.8523 152.775 92.5664 155.827 95.6178C158.878 98.6692 160.592 102.808 160.592 107.123V413.659C160.592 417.975 158.878 422.113 155.827 425.165C152.775 428.216 148.637 429.93 144.322 429.93H16.3205C12.0053 429.93 7.86673 428.216 4.81538 425.165C1.76403 422.113 0.0498047 417.975 0.0498047 413.659V107.123C0.0498047 102.808 1.76404 98.6691 4.81538 95.6178C7.86673 92.5665 12.0052 90.8523 16.3205 90.8523Z" fill="#6756D8"/>
<path d="M16.3205 90.8523H144.322C148.637 90.8523 152.775 92.5664 155.827 95.6178C158.878 98.6692 160.592 102.808 160.592 107.123V413.659C160.592 417.975 158.878 422.113 155.827 425.165C152.775 428.216 148.637 429.93 144.322 429.93H16.3205C12.0053 429.93 7.86673 428.216 4.81538 425.165C1.76403 422.113 0.0498047 417.975 0.0498047 413.659V107.123C0.0498047 102.808 1.76404 98.6691 4.81538 95.6178C7.86673 92.5665 12.0052 90.8523 16.3205 90.8523Z" fill="#6756D8"/>
<path d="M160.592 109.521H0.0498047V400.904H160.592V109.521Z" fill="#FAFAFA"/>
<path opacity="0.18" d="M160.685 108.915H0.143066V400.298H160.685V108.915Z" fill="#6756D8"/>
<path opacity="0.4" d="M58.3122 109.544L6.24121 400.927H57.8002L109.895 109.544H58.3122Z" fill="white"/>
<path opacity="0.4" d="M122.464 109.544L70.3931 400.927H96.1841L148.255 109.544H122.464Z" fill="white"/>
<path d="M87.5717 414.404C87.5717 415.836 87.1471 417.236 86.3516 418.426C85.5562 419.617 84.4256 420.545 83.1028 421.093C81.78 421.64 80.3245 421.784 78.9202 421.505C77.5159 421.225 76.226 420.536 75.2136 419.523C74.2012 418.511 73.5117 417.221 73.2324 415.817C72.953 414.412 73.0964 412.957 73.6443 411.634C74.1922 410.311 75.1201 409.181 76.3106 408.385C77.501 407.59 78.9006 407.165 80.3324 407.165C82.2524 407.165 84.0937 407.928 85.4513 409.286C86.8089 410.643 87.5716 412.484 87.5717 414.404Z" fill="#6756D8"/>
<path opacity="0.5" d="M87.5717 414.404C87.5717 415.836 87.1471 417.236 86.3516 418.426C85.5562 419.617 84.4256 420.545 83.1028 421.093C81.78 421.64 80.3245 421.784 78.9202 421.505C77.5159 421.225 76.226 420.536 75.2136 419.523C74.2012 418.511 73.5117 417.221 73.2324 415.817C72.953 414.412 73.0964 412.957 73.6443 411.634C74.1922 410.311 75.1201 409.181 76.3106 408.385C77.501 407.59 78.9006 407.165 80.3324 407.165C82.2524 407.165 84.0937 407.928 85.4513 409.286C86.8089 410.643 87.5716 412.484 87.5717 414.404Z" fill="black"/>
<path d="M99.3036 102.002C100.718 102.002 101.864 100.856 101.864 99.4414C101.864 98.0273 100.718 96.881 99.3036 96.881C97.8895 96.881 96.7432 98.0273 96.7432 99.4414C96.7432 100.856 97.8895 102.002 99.3036 102.002Z" fill="#6756D8"/>
<path d="M88.8519 102.002H61.3383C60.6592 102.002 60.008 101.732 59.5278 101.252C59.0476 100.772 58.7778 100.12 58.7778 99.4414C58.7839 98.7642 59.0556 98.1166 59.5345 97.6377C60.0134 97.1588 60.6611 96.8871 61.3383 96.881H88.8286C89.5058 96.8871 90.1536 97.1588 90.6324 97.6377C91.1113 98.1166 91.383 98.7642 91.3891 99.4414C91.3891 100.116 91.1226 100.764 90.6474 101.244C90.1722 101.723 89.5269 101.996 88.8519 102.002Z" fill="#6756D8"/>
<path opacity="0.5" d="M99.3036 102.002C100.718 102.002 101.864 100.856 101.864 99.4414C101.864 98.0273 100.718 96.881 99.3036 96.881C97.8895 96.881 96.7432 98.0273 96.7432 99.4414C96.7432 100.856 97.8895 102.002 99.3036 102.002Z" fill="black"/>
<path opacity="0.5" d="M88.8519 102.002H61.3383C60.6592 102.002 60.008 101.732 59.5278 101.252C59.0476 100.772 58.7778 100.12 58.7778 99.4414C58.7839 98.7642 59.0556 98.1166 59.5345 97.6377C60.0134 97.1588 60.6611 96.8871 61.3383 96.881H88.8286C89.5058 96.8871 90.1536 97.1588 90.6324 97.6377C91.1113 98.1166 91.383 98.7642 91.3891 99.4414C91.3891 100.116 91.1226 100.764 90.6474 101.244C90.1722 101.723 89.5269 101.996 88.8519 102.002Z" fill="black"/>
</svg>
