<svg width="541" height="471" viewBox="0 0 541 471" fill="none" xmlns="http://www.w3.org/2000/svg">
<path d="M83.4722 242.152L51.1494 197.741V242.152H24.6079V154.513H51.938L82.4209 196.033V154.513H108.962V242.152H83.4722Z" fill="#6756D8"/>
<path d="M118.421 198.398C118.421 171.463 139.313 153.067 166.379 153.067C193.446 153.067 214.338 171.463 214.338 198.398C214.338 225.334 193.446 243.729 166.379 243.729C139.313 243.729 118.421 225.334 118.421 198.398ZM187.402 198.398C187.402 186.179 179.125 176.456 166.379 176.456C153.634 176.456 145.356 186.179 145.356 198.398C145.356 210.618 153.634 220.341 166.379 220.341C179.125 220.341 187.402 210.618 187.402 198.398Z" fill="#6756D8"/>
<path d="M252.568 198.398C252.568 171.463 273.459 153.067 300.526 153.067C327.593 153.067 348.485 171.463 348.485 198.398C348.485 225.334 327.593 243.729 300.526 243.729C273.459 243.729 252.568 225.334 252.568 198.398ZM321.549 198.398C321.549 186.179 313.271 176.456 300.526 176.456C287.781 176.456 279.503 186.179 279.503 198.398C279.503 210.618 287.781 220.341 300.526 220.341C313.271 220.341 321.549 210.618 321.549 198.398Z" fill="#6756D8"/>
<path d="M416.806 242.152L384.483 197.741V242.152H357.941V154.513H385.271L415.754 196.033V154.513H442.296V242.152H416.806Z" fill="#6756D8"/>
<path d="M456.484 242.152V154.513H522.969V177.638H483.026V186.31H522.05V209.435H483.026V219.027H522.969V242.152H456.484Z" fill="#6756D8"/>
<path d="M265.969 358.725V325.221H234.566V358.725H208.024V271.086H234.566V302.095H265.969V271.086H292.51V358.725H265.969Z" fill="#6756D8"/>
<path d="M306.698 358.725V271.086H373.183V294.211H333.239V302.884H372.263V326.009H333.239V335.6H373.183V358.725H306.698Z" fill="#6756D8"/>
<path d="M433.227 358.725L421.139 331.133H411.547V358.725H385.005V271.086H431.781C452.279 271.086 463.316 284.751 463.316 301.175C463.316 316.285 454.513 324.301 447.549 327.717L463.447 358.725H433.227ZM436.38 301.044C436.38 296.313 432.176 294.211 427.708 294.211H411.547V308.008H427.708C432.176 308.008 436.38 305.905 436.38 301.044Z" fill="#6756D8"/>
<path d="M474.087 358.725V271.086H540.572V294.211H500.628V302.884H539.652V326.009H500.628V335.6H540.572V358.725H474.087Z" fill="#6756D8"/>
<path d="M240.402 470.918H7.6814C5.85629 470.918 4.10592 470.193 2.81537 468.903C1.52482 467.612 0.79981 465.862 0.799805 464.037V7.65796C0.815698 5.84331 1.54772 4.10848 2.83655 2.83093C4.12538 1.55339 5.86668 0.836603 7.6814 0.83667H240.402C241.306 0.836669 242.201 1.01464 243.036 1.36047C243.871 1.70631 244.629 2.21316 245.268 2.85217C245.907 3.49119 246.414 4.2498 246.76 5.08472C247.106 5.91963 247.284 6.81456 247.284 7.71826V464.037C247.284 465.862 246.559 467.612 245.268 468.903C243.978 470.193 242.227 470.918 240.402 470.918ZM7.6814 1.07764C5.93717 1.08082 4.26528 1.77519 3.03192 3.00854C1.79857 4.2419 1.10429 5.91373 1.1011 7.65796V464.037C1.10429 465.781 1.79857 467.453 3.03192 468.686C4.26528 469.92 5.93717 470.614 7.6814 470.617H240.402C242.146 470.614 243.818 469.92 245.052 468.686C246.285 467.453 246.979 465.781 246.983 464.037V7.65796C246.979 5.91373 246.285 4.2419 245.052 3.00854C243.818 1.77519 242.146 1.08094 240.402 1.07776L7.6814 1.07764Z" fill="#EBEBEB"/>
<path d="M501.083 470.918H268.363C266.537 470.918 264.787 470.193 263.497 468.903C262.206 467.612 261.481 465.862 261.481 464.037V7.65796C261.497 5.84331 262.229 4.10848 263.518 2.83093C264.807 1.55339 266.548 0.8366 268.363 0.83667H501.083C502.909 0.836678 504.659 1.56175 505.949 2.85229C507.24 4.14284 507.965 5.89315 507.965 7.71826V464.037C507.965 465.862 507.24 467.612 505.949 468.903C504.659 470.193 502.909 470.918 501.083 470.918ZM268.363 1.07764C266.618 1.08082 264.946 1.77519 263.713 3.00854C262.48 4.2419 261.785 5.91373 261.782 7.65796V464.037C261.785 465.781 262.48 467.453 263.713 468.686C264.946 469.92 266.618 470.614 268.363 470.617H501.083C502.828 470.614 504.5 469.92 505.733 468.686C506.966 467.453 507.661 465.781 507.664 464.037V7.65796C507.661 5.91374 506.966 4.2419 505.733 3.00854C504.5 1.77519 502.828 1.08095 501.083 1.07776L268.363 1.07764Z" fill="#EBEBEB"/>
<path d="M89.3323 137.324L91.2853 141.265L95.6483 141.903L92.4903 144.977L93.2373 149.315L89.3323 147.266L85.4403 149.315L86.1873 144.977L83.0293 141.903L87.3923 141.265L89.3323 137.324Z" fill="#EBEBEB"/>
<path d="M479.39 323.199L481.342 327.152L485.705 327.791L482.548 330.852L483.295 335.203L479.39 333.154L475.497 335.203L476.244 330.852L473.087 327.791L477.45 327.152L479.39 323.199Z" fill="#F5F5F5"/>
<path d="M402.138 437.8L404.09 441.741L408.441 442.38L405.283 445.453L406.03 449.791L402.138 447.743L398.245 449.791L398.98 445.453L395.835 442.38L400.185 441.741L402.138 437.8Z" fill="#F5F5F5"/>
<path d="M225.386 67.3025L226.109 68.7728L227.736 69.0138C227.827 69.0257 227.912 69.0632 227.983 69.1219C228.053 69.1807 228.105 69.2581 228.133 69.3453C228.161 69.4326 228.163 69.526 228.14 69.6145C228.116 69.7031 228.068 69.7832 228.001 69.8455L226.796 70.9904L227.073 72.6052C227.087 72.6951 227.076 72.7872 227.042 72.8713C227.007 72.9554 226.95 73.0283 226.876 73.0819C226.803 73.1355 226.716 73.1677 226.625 73.175C226.534 73.1824 226.443 73.1646 226.362 73.1235L224.916 72.3522L223.47 73.1235C223.388 73.1646 223.297 73.1824 223.207 73.175C223.116 73.1677 223.029 73.1355 222.956 73.0819C222.882 73.0283 222.825 72.9554 222.79 72.8713C222.755 72.7872 222.744 72.6951 222.759 72.6052L223.024 70.9904L221.819 69.8455C221.751 69.7824 221.703 69.7013 221.68 69.6118C221.658 69.5223 221.661 69.4283 221.69 69.3407C221.719 69.2531 221.773 69.1757 221.845 69.1178C221.917 69.0599 222.004 69.0237 222.096 69.0138L223.711 68.7728L224.434 67.3025C224.463 67.1985 224.525 67.1068 224.611 67.0415C224.697 66.9762 224.802 66.9408 224.91 66.9408C225.018 66.9408 225.123 66.9762 225.209 67.0415C225.295 67.1068 225.357 67.1985 225.386 67.3025Z" fill="#EBEBEB"/>
<path d="M26.3377 419.035L27.0608 420.493L28.6758 420.734C28.7675 420.747 28.8538 420.785 28.9249 420.844C28.996 420.904 29.049 420.982 29.0779 421.07C29.1068 421.158 29.1104 421.252 29.0883 421.342C29.0662 421.432 29.0194 421.514 28.953 421.578L27.7479 422.711L28.025 424.326C28.0393 424.416 28.0284 424.508 27.9936 424.592C27.9589 424.676 27.9016 424.749 27.828 424.803C27.7545 424.856 27.6676 424.888 27.5769 424.896C27.4862 424.903 27.3952 424.885 27.314 424.844L25.8678 424.085L24.4215 424.844C24.3403 424.885 24.2494 424.903 24.1587 424.896C24.0679 424.888 23.981 424.856 23.9075 424.803C23.8339 424.749 23.7766 424.676 23.7419 424.592C23.7071 424.508 23.6962 424.416 23.7105 424.326L23.9877 422.711L22.7825 421.578C22.7164 421.514 22.6693 421.433 22.6467 421.344C22.624 421.255 22.6265 421.162 22.6541 421.074C22.6816 420.987 22.733 420.909 22.8025 420.849C22.8721 420.788 22.9569 420.749 23.0476 420.734L24.6626 420.493L25.3978 419.035C25.43 418.936 25.4928 418.849 25.5772 418.788C25.6617 418.727 25.7634 418.694 25.8678 418.694C25.9721 418.694 26.0738 418.727 26.1583 418.788C26.2427 418.849 26.3055 418.936 26.3378 419.035H26.3377Z" fill="#F5F5F5"/>
<path d="M58.8413 51.8159L59.5645 53.2863L61.1915 53.5153C61.2822 53.5297 61.367 53.5691 61.4365 53.6292C61.506 53.6892 61.5575 53.7674 61.585 53.855C61.6125 53.9426 61.6151 54.0362 61.5924 54.1252C61.5697 54.2142 61.5227 54.2951 61.4566 54.3589L60.2514 55.5641L60.5286 57.1669C60.5479 57.2579 60.5404 57.3525 60.5071 57.4393C60.4738 57.5262 60.4161 57.6016 60.3409 57.6564C60.2658 57.7111 60.1764 57.7429 60.0835 57.748C59.9906 57.7532 59.8983 57.7314 59.8176 57.6852L58.3713 56.9259L56.9251 57.6852C56.8444 57.7314 56.752 57.7532 56.6592 57.748C56.5663 57.7429 56.4769 57.7111 56.4018 57.6564C56.3266 57.6016 56.2689 57.5262 56.2356 57.4393C56.2023 57.3525 56.1948 57.2579 56.2141 57.1669L56.4792 55.5641L55.274 54.3589C55.2077 54.2943 55.1608 54.2124 55.1388 54.1226C55.1167 54.0327 55.1203 53.9384 55.1492 53.8505C55.1781 53.7625 55.2311 53.6845 55.3022 53.6252C55.3733 53.566 55.4596 53.5279 55.5512 53.5153L57.1662 53.2863L57.9375 51.8159C57.9762 51.7283 58.0395 51.6538 58.1198 51.6016C58.2 51.5493 58.2937 51.5215 58.3894 51.5215C58.4852 51.5215 58.5789 51.5493 58.6591 51.6016C58.7393 51.6538 58.8026 51.7283 58.8413 51.8159Z" fill="#EBEBEB"/>
<path d="M56.8888 342.289C56.8912 342.606 56.7996 342.917 56.6254 343.182C56.4513 343.447 56.2025 343.654 55.9105 343.777C55.6185 343.901 55.2965 343.935 54.9851 343.876C54.6737 343.816 54.387 343.666 54.1611 343.443C53.9353 343.221 53.7805 342.936 53.7163 342.626C53.6521 342.315 53.6814 341.993 53.8006 341.699C53.9197 341.405 54.1232 341.153 54.3855 340.975C54.6478 340.797 54.9569 340.701 55.2739 340.698H55.286C55.709 340.698 56.1149 340.866 56.4151 341.164C56.7154 341.462 56.8857 341.866 56.8888 342.289Z" fill="#EBEBEB"/>
<path d="M285.32 141.71C285.322 142.028 285.23 142.338 285.056 142.603C284.882 142.868 284.633 143.075 284.341 143.199C284.049 143.322 283.727 143.356 283.416 143.297C283.104 143.237 282.818 143.087 282.592 142.864C282.366 142.642 282.211 142.357 282.147 142.047C282.083 141.737 282.112 141.414 282.231 141.12C282.35 140.826 282.554 140.575 282.816 140.397C283.078 140.218 283.388 140.122 283.705 140.12H283.717C283.926 140.118 284.133 140.158 284.326 140.236C284.52 140.315 284.696 140.431 284.845 140.577C284.994 140.724 285.112 140.898 285.194 141.091C285.275 141.283 285.318 141.49 285.319 141.699L285.32 141.71Z" fill="#EBEBEB"/>
<path d="M202.21 53.1416C202.21 53.4586 202.116 53.7685 201.94 54.0321C201.764 54.2957 201.514 54.5011 201.221 54.6224C200.928 54.7438 200.606 54.7756 200.295 54.7137C199.984 54.6519 199.698 54.4992 199.474 54.275C199.25 54.0509 199.097 53.7653 199.035 53.4543C198.973 53.1434 199.005 52.8211 199.126 52.5282C199.248 52.2353 199.453 51.985 199.717 51.8088C199.98 51.6327 200.29 51.5387 200.607 51.5387C201.032 51.5387 201.44 51.7076 201.741 52.0082C202.041 52.3088 202.21 52.7165 202.21 53.1416Z" fill="#F5F5F5"/>
<path d="M202.714 444.031C207.606 444.031 211.572 440.065 211.572 435.173C211.572 430.281 207.606 426.315 202.714 426.315C197.821 426.315 193.855 430.281 193.855 435.173C193.855 440.065 197.821 444.031 202.714 444.031Z" fill="#F0F0F0"/>
<path d="M199.667 429.99C197.853 429.987 196.084 430.561 194.617 431.629C193.868 433.347 193.684 435.259 194.092 437.089C194.5 438.918 195.478 440.571 196.886 441.808C198.294 443.046 200.058 443.804 201.925 443.974C203.791 444.144 205.664 443.716 207.272 442.753C207.984 441.437 208.341 439.958 208.31 438.461C208.278 436.965 207.859 435.503 207.092 434.217C206.325 432.932 205.238 431.868 203.936 431.129C202.635 430.39 201.164 430.002 199.667 430.002V429.99Z" fill="#E6E6E6"/>
<g opacity="0.3">
<path opacity="0.3" d="M195.328 110.05C195.328 110.496 195.196 110.932 194.948 111.302C194.701 111.673 194.349 111.962 193.937 112.132C193.525 112.303 193.072 112.348 192.635 112.261C192.198 112.174 191.796 111.959 191.481 111.644C191.166 111.329 190.951 110.927 190.864 110.49C190.777 110.053 190.822 109.6 190.992 109.188C191.163 108.776 191.452 108.424 191.822 108.176C192.193 107.929 192.629 107.797 193.075 107.797H193.087C193.381 107.797 193.672 107.855 193.944 107.967C194.216 108.08 194.463 108.245 194.672 108.453C194.88 108.661 195.045 108.908 195.158 109.18C195.27 109.452 195.328 109.744 195.328 110.038L195.328 110.05Z" fill="#6756D8"/>
<path opacity="0.3" d="M41.0288 196.619C41.9074 196.619 42.6197 195.906 42.6197 195.028C42.6197 194.149 41.9074 193.437 41.0288 193.437C40.1502 193.437 39.438 194.149 39.438 195.028C39.438 195.906 40.1502 196.619 41.0288 196.619Z" fill="#6756D8"/>
<path opacity="0.3" d="M303.855 428.942C305.113 428.942 306.133 427.922 306.133 426.664C306.133 425.406 305.113 424.386 303.855 424.386C302.597 424.386 301.577 425.406 301.577 426.664C301.577 427.922 302.597 428.942 303.855 428.942Z" fill="#6756D8"/>
<path opacity="0.3" d="M358.631 336.263C359.51 336.263 360.222 335.551 360.222 334.672C360.222 333.794 359.51 333.082 358.631 333.082C357.752 333.082 357.04 333.794 357.04 334.672C357.04 335.551 357.752 336.263 358.631 336.263Z" fill="#6756D8"/>
<path opacity="0.3" d="M464.289 49.7911C464.289 50.1058 464.196 50.4134 464.021 50.675C463.846 50.9367 463.598 51.1406 463.307 51.261C463.016 51.3814 462.697 51.4128 462.388 51.3514C462.079 51.2901 461.796 51.1386 461.573 50.9161C461.351 50.6937 461.199 50.4102 461.138 50.1016C461.077 49.793 461.108 49.4731 461.229 49.1824C461.349 48.8917 461.553 48.6433 461.814 48.4685C462.076 48.2937 462.384 48.2003 462.698 48.2003C462.907 48.2003 463.114 48.2415 463.307 48.3214C463.5 48.4014 463.675 48.5185 463.823 48.6663C463.971 48.814 464.088 48.9894 464.168 49.1824C464.248 49.3754 464.289 49.5822 464.289 49.7911Z" fill="#6756D8"/>
<path opacity="0.3" d="M161.282 17.7092C161.282 18.0239 161.188 18.3314 161.014 18.593C160.839 18.8546 160.59 19.0585 160.3 19.179C160.009 19.2994 159.689 19.3309 159.381 19.2695C159.072 19.2081 158.789 19.0566 158.566 18.8341C158.344 18.6116 158.192 18.3281 158.131 18.0195C158.069 17.7109 158.101 17.3912 158.221 17.1005C158.342 16.8098 158.546 16.5613 158.807 16.3865C159.069 16.2117 159.376 16.1184 159.691 16.1184C160.113 16.1184 160.518 16.286 160.816 16.5844C161.114 16.8827 161.282 17.2873 161.282 17.7092Z" fill="#6756D8"/>
<path opacity="0.3" d="M287.766 101.18C288.645 101.18 289.357 100.468 289.357 99.5894C289.357 98.7108 288.645 97.9985 287.766 97.9985C286.888 97.9985 286.175 98.7108 286.175 99.5894C286.175 100.468 286.888 101.18 287.766 101.18Z" fill="#6756D8"/>
</g>
<path d="M123.295 101.192C137.878 101.192 149.7 89.37 149.7 74.7866C149.7 60.2032 137.878 48.3811 123.295 48.3811C108.711 48.3811 96.8892 60.2032 96.8892 74.7866C96.8892 89.37 108.711 101.192 123.295 101.192Z" fill="#6756D8"/>
<path opacity="0.7" d="M123.295 101.192C137.878 101.192 149.7 89.37 149.7 74.7866C149.7 60.2032 137.878 48.3811 123.295 48.3811C108.711 48.3811 96.8892 60.2032 96.8892 74.7866C96.8892 89.37 108.711 101.192 123.295 101.192Z" fill="white"/>
<path opacity="0.2" d="M114.196 54.865C110.599 54.854 107.039 55.58 103.735 56.9982C99.6731 61.462 97.2624 67.1819 96.9037 73.2063C96.5449 79.2307 98.2597 85.1964 101.763 90.1107C105.266 95.0251 110.346 98.5918 116.158 100.218C121.97 101.843 128.163 101.43 133.707 99.047C137.145 95.2587 139.409 90.5537 140.224 85.5035C141.039 80.4534 140.37 75.2752 138.299 70.5978C136.227 65.9204 132.843 61.945 128.555 59.1543C124.268 56.3636 119.263 54.8777 114.147 54.877L114.196 54.865Z" fill="#6756D8"/>
<path opacity="0.2" d="M111.568 61.843C111.568 62.3197 111.427 62.7857 111.162 63.1821C110.897 63.5785 110.521 63.8875 110.08 64.0699C109.64 64.2524 109.155 64.3 108.688 64.207C108.22 64.114 107.791 63.8845 107.454 63.5474C107.116 63.2103 106.887 62.7808 106.794 62.3132C106.701 61.8457 106.749 61.361 106.931 60.9205C107.113 60.4801 107.422 60.1037 107.819 59.8389C108.215 59.574 108.681 59.4326 109.158 59.4326C109.474 59.4326 109.788 59.495 110.08 59.6161C110.373 59.7372 110.639 59.9148 110.862 60.1387C111.086 60.3625 111.264 60.6281 111.385 60.9205C111.506 61.213 111.568 61.5265 111.568 61.843Z" fill="#6756D8"/>
<path opacity="0.2" d="M139.962 59.4326C139.962 59.9093 139.821 60.3753 139.556 60.7717C139.291 61.1681 138.915 61.4771 138.474 61.6595C138.034 61.842 137.549 61.8898 137.082 61.7968C136.614 61.7037 136.185 61.4742 135.848 61.1371C135.51 60.8 135.281 60.3704 135.188 59.9028C135.095 59.4353 135.143 58.9507 135.325 58.5103C135.508 58.0698 135.816 57.6933 136.213 57.4285C136.609 57.1636 137.075 57.0223 137.552 57.0223C137.868 57.0223 138.182 57.0847 138.474 57.2058C138.767 57.3269 139.033 57.5044 139.256 57.7283C139.48 57.9521 139.658 58.2178 139.779 58.5103C139.9 58.8027 139.962 59.1161 139.962 59.4326Z" fill="#6756D8"/>
<path opacity="0.2" d="M135.141 76.6427C135.141 77.4245 134.91 78.1888 134.475 78.8389C134.041 79.4889 133.423 79.9956 132.701 80.2948C131.979 80.594 131.184 80.6722 130.417 80.5197C129.65 80.3671 128.946 79.9907 128.393 79.4379C127.84 78.885 127.464 78.1806 127.311 77.4138C127.159 76.647 127.237 75.8522 127.536 75.1299C127.835 74.4076 128.342 73.7902 128.992 73.3558C129.642 72.9215 130.407 72.6897 131.188 72.6897C132.237 72.6897 133.242 73.1061 133.984 73.8474C134.725 74.5887 135.141 75.5943 135.141 76.6427Z" fill="#6756D8"/>
<path opacity="0.2" d="M122.584 87.9111C122.584 88.9552 122.274 89.9757 121.694 90.8438C121.114 91.7118 120.29 92.3884 119.325 92.788C118.361 93.1875 117.299 93.2921 116.275 93.0884C115.251 92.8847 114.311 92.3819 113.572 91.6437C112.834 90.9054 112.331 89.9649 112.128 88.9409C111.924 87.917 112.029 86.8557 112.428 85.8911C112.828 84.9266 113.504 84.1021 114.372 83.5221C115.24 82.9421 116.261 82.6324 117.305 82.6324C117.998 82.6324 118.685 82.7689 119.325 83.0342C119.966 83.2995 120.547 83.6883 121.038 84.1785C121.528 84.6686 121.917 85.2505 122.182 85.891C122.447 86.5314 122.584 87.2179 122.584 87.9111Z" fill="#6756D8"/>
<path d="M413.688 411.152C426.488 411.152 436.864 400.776 436.864 387.976C436.864 375.177 426.488 364.8 413.688 364.8C400.889 364.8 390.513 375.177 390.513 387.976C390.513 400.776 400.889 411.152 413.688 411.152Z" fill="#6756D8"/>
<path opacity="0.3" d="M413.688 411.152C426.488 411.152 436.864 400.776 436.864 387.976C436.864 375.177 426.488 364.8 413.688 364.8C400.889 364.8 390.513 375.177 390.513 387.976C390.513 400.776 400.889 411.152 413.688 411.152Z" fill="white"/>
<path opacity="0.4" d="M428.327 370.033C423.189 368.482 417.672 368.763 412.719 370.828C407.766 372.894 403.684 376.615 401.169 381.356C398.655 386.097 397.865 391.564 398.934 396.823C400.003 402.082 402.865 406.806 407.031 410.189C409.192 410.845 411.437 411.178 413.696 411.177C418.48 411.176 423.147 409.694 427.056 406.935C430.965 404.176 433.924 400.275 435.527 395.767C437.13 391.259 437.298 386.365 436.009 381.757C434.72 377.15 432.036 373.054 428.327 370.033Z" fill="#6756D8"/>
<path d="M391.568 394.932C366.826 406.574 385.277 415.552 420.143 403.018C452.43 391.412 464.735 376.781 435.81 381.325C437.365 387.411 396.931 403.163 391.568 394.932Z" fill="#6756D8"/>
<path d="M260.408 378.384C239.92 378.384 219.661 369.141 209.79 354.052C203.704 344.724 196.63 325.188 217.696 299.12L219.564 300.638C204.668 319.077 201.92 337.577 211.815 352.738C223.867 371.177 252.297 380.457 276.569 373.853C301.432 367.092 316.521 345.471 317.98 314.534C322.957 208.707 379.179 176.106 420.227 152.304C445.741 137.516 464.168 126.839 460.119 104.29C459.552 101.168 458.311 99.0109 456.298 97.6852C451.056 94.2263 440.812 96.6246 428.953 99.3845C405.681 104.808 373.816 112.232 354.834 79.9449L356.919 78.7397C374.997 109.508 404.608 102.602 428.411 97.0585C440.812 94.1781 451.514 91.6834 457.624 95.6967C460.215 97.396 461.806 100.083 462.445 103.892C466.796 128.092 446.778 139.71 421.408 154.413C380.83 177.938 325.271 210.153 320.354 314.703C318.835 346.76 303.096 369.189 277.16 376.239C271.696 377.694 266.062 378.416 260.408 378.384Z" fill="#6756D8"/>
<path opacity="0.2" d="M260.408 378.384C239.92 378.384 219.661 369.141 209.79 354.052C203.704 344.724 196.63 325.188 217.696 299.12L219.564 300.638C204.668 319.077 201.92 337.577 211.815 352.738C223.867 371.177 252.297 380.457 276.569 373.853C301.432 367.092 316.521 345.471 317.98 314.534C322.957 208.707 379.179 176.106 420.227 152.304C445.741 137.516 464.168 126.839 460.119 104.29C459.552 101.168 458.311 99.0109 456.298 97.6852C451.056 94.2263 440.812 96.6246 428.953 99.3845C405.681 104.808 373.816 112.232 354.834 79.9449L356.919 78.7397C374.997 109.508 404.608 102.602 428.411 97.0585C440.812 94.1781 451.514 91.6834 457.624 95.6967C460.215 97.396 461.806 100.083 462.445 103.892C466.796 128.092 446.778 139.71 421.408 154.413C380.83 177.938 325.271 210.153 320.354 314.703C318.835 346.76 303.096 369.189 277.16 376.239C271.696 377.694 266.062 378.416 260.408 378.384Z" fill="white"/>
<path d="M330.02 51.4543C335.573 51.4864 341.09 52.3517 346.386 54.0214C346.386 54.0214 359.643 76.6427 361.21 81.825C360.655 86.935 352.038 95.3109 352.038 95.3109L330.02 51.4543Z" fill="#6756D8"/>
<path opacity="0.3" d="M330.02 51.4543C335.573 51.4864 341.09 52.3517 346.386 54.0214C346.386 54.0214 359.643 76.6427 361.21 81.825C360.655 86.935 352.038 95.3109 352.038 95.3109L330.02 51.4543Z" fill="white"/>
<path d="M369.284 161.283C364.179 155.04 359.523 148.443 355.352 141.542C354.34 139.798 353.38 138.023 352.472 136.215C351.954 135.19 351.46 134.166 350.977 133.13C350.345 132.121 349.854 131.03 349.519 129.888C348.073 114.618 353.304 103.374 348.314 91.1168L328.453 98.8783C328.453 98.8783 330.14 120.716 333.996 133.829C336.407 141.939 341.806 148.954 347.024 155.45C348.651 157.474 350.218 159.559 351.845 161.596C353.472 163.633 355.111 165.284 356.666 167.2C359.016 170.105 359.787 172.889 358.016 176.311L357.714 176.854C357.208 177.745 359.57 178.758 361.065 176.854C363.475 173.744 363.138 173.937 365.235 171.286C366.512 169.683 367.971 167.935 369.236 166.465C369.846 165.742 370.185 164.829 370.194 163.882C370.203 162.936 369.881 162.017 369.284 161.283Z" fill="#6756D8"/>
<path opacity="0.7" d="M369.284 161.283C364.179 155.04 359.523 148.443 355.352 141.542C354.34 139.798 353.38 138.023 352.472 136.215C351.954 135.19 351.46 134.166 350.977 133.13C350.345 132.121 349.854 131.03 349.519 129.888C348.073 114.618 353.304 103.374 348.314 91.1168L328.453 98.8783C328.453 98.8783 330.14 120.716 333.996 133.829C336.407 141.939 341.806 148.954 347.024 155.45C348.651 157.474 350.218 159.559 351.845 161.596C353.472 163.633 355.111 165.284 356.666 167.2C359.016 170.105 359.787 172.889 358.016 176.311L357.714 176.854C357.208 177.745 359.57 178.758 361.065 176.854C363.475 173.744 363.138 173.937 365.235 171.286C366.512 169.683 367.971 167.935 369.236 166.465C369.846 165.742 370.185 164.829 370.194 163.882C370.203 162.936 369.881 162.017 369.284 161.283Z" fill="white"/>
<path opacity="0.3" d="M364.427 155.004C361.275 158.382 357.777 161.42 353.99 164.067C354.508 164.645 355.015 165.272 355.533 165.826C359.324 163.265 362.768 160.222 365.777 156.775L364.427 155.004Z" fill="#6756D8"/>
<path opacity="0.3" d="M369.284 161.283L369.14 161.114C368.212 162.178 367.673 163.524 367.609 164.934C367.532 165.901 367.689 166.873 368.067 167.767L369.212 166.405C369.81 165.689 370.144 164.789 370.158 163.857C370.171 162.924 369.862 162.015 369.284 161.283Z" fill="#6756D8"/>
<path d="M325.295 65.9166C323.142 69.1406 320.559 72.0559 317.618 74.5818C315.987 75.9875 314.199 77.2007 312.291 78.1974C311.288 78.7112 310.249 79.1503 309.182 79.511L308.362 79.7762L308.097 79.8486L307.53 80.0052C307.182 80.0879 306.827 80.1443 306.47 80.1739C305.453 80.2516 304.431 80.1579 303.445 79.8967C302.202 79.5439 301.011 79.0293 299.902 78.3661C299.009 77.8445 298.145 77.2773 297.311 76.6668C295.804 75.546 294.363 74.3388 292.996 73.0512C290.36 70.5534 287.941 67.836 285.765 64.9283C285.346 64.3618 285.138 63.667 285.176 62.9634C285.215 62.2599 285.498 61.592 285.977 61.0749C286.455 60.5578 287.099 60.2239 287.798 60.1309C288.496 60.0379 289.205 60.1917 289.802 60.5656H289.899C292.743 62.3734 295.611 64.2776 298.407 65.9769C299.829 66.8084 301.203 67.652 302.565 68.3028C303.187 68.6283 303.827 68.9181 304.481 69.1706C304.889 69.3507 305.326 69.4568 305.771 69.4839C305.843 69.4839 305.771 69.3995 305.325 69.4116C305.185 69.4032 305.044 69.4032 304.903 69.4116L304.638 69.4719L305.036 69.267C305.571 68.9789 306.09 68.661 306.59 68.3149C307.669 67.5545 308.677 66.6996 309.603 65.7599C311.709 63.5535 313.681 61.2233 315.509 58.7819C316.51 57.6614 317.894 56.9556 319.39 56.8029C320.885 56.6502 322.383 57.0618 323.59 57.9567C324.797 58.8517 325.627 60.1653 325.915 61.6402C326.204 63.1151 325.931 64.6446 325.15 65.9286L325.295 65.9166Z" fill="#6756D8"/>
<path opacity="0.7" d="M325.295 65.9166C323.142 69.1406 320.559 72.0559 317.618 74.5818C315.987 75.9875 314.199 77.2007 312.291 78.1974C311.288 78.7112 310.249 79.1503 309.182 79.511L308.362 79.7762L308.097 79.8486L307.53 80.0052C307.182 80.0879 306.827 80.1443 306.47 80.1739C305.453 80.2516 304.431 80.1579 303.445 79.8967C302.202 79.5439 301.011 79.0293 299.902 78.3661C299.009 77.8445 298.145 77.2773 297.311 76.6668C295.804 75.546 294.363 74.3388 292.996 73.0512C290.36 70.5534 287.941 67.836 285.765 64.9283C285.346 64.3618 285.138 63.667 285.176 62.9634C285.215 62.2599 285.498 61.592 285.977 61.0749C286.455 60.5578 287.099 60.2239 287.798 60.1309C288.496 60.0379 289.205 60.1917 289.802 60.5656H289.899C292.743 62.3734 295.611 64.2776 298.407 65.9769C299.829 66.8084 301.203 67.652 302.565 68.3028C303.187 68.6283 303.827 68.9181 304.481 69.1706C304.889 69.3507 305.326 69.4568 305.771 69.4839C305.843 69.4839 305.771 69.3995 305.325 69.4116C305.185 69.4032 305.044 69.4032 304.903 69.4116L304.638 69.4719L305.036 69.267C305.571 68.9789 306.09 68.661 306.59 68.3149C307.669 67.5545 308.677 66.6996 309.603 65.7599C311.709 63.5535 313.681 61.2233 315.509 58.7819C316.51 57.6614 317.894 56.9556 319.39 56.8029C320.885 56.6502 322.383 57.0618 323.59 57.9567C324.797 58.8517 325.627 60.1653 325.915 61.6402C326.204 63.1151 325.931 64.6446 325.15 65.9286L325.295 65.9166Z" fill="white"/>
<path d="M281.246 57.9864L282.656 60.3968C282.656 60.3968 283.728 63.5543 285.886 64.1328L291.743 62.2407L291.441 61.7465C290.694 60.6137 290.779 58.4081 291.032 56.5762C291.285 54.7444 290.345 54.6842 289.646 55.1422C289.15 55.712 288.803 56.3948 288.633 57.1307C288.346 56.7327 288.028 56.3579 287.681 56.0098L285.898 54.2261C285.523 53.8604 285.025 53.6497 284.502 53.6363C283.979 53.6229 283.47 53.8078 283.077 54.1539L281.631 55.4434C281.288 55.7608 281.063 56.1853 280.993 56.6474C280.923 57.1095 281.012 57.5816 281.246 57.9864Z" fill="#6756D8"/>
<path opacity="0.7" d="M281.246 57.9864L282.656 60.3968C282.656 60.3968 283.728 63.5543 285.886 64.1328L291.743 62.2407L291.441 61.7465C290.694 60.6137 290.779 58.4081 291.032 56.5762C291.285 54.7444 290.345 54.6842 289.646 55.1422C289.15 55.712 288.803 56.3948 288.633 57.1307C288.346 56.7327 288.028 56.3579 287.681 56.0098L285.898 54.2261C285.523 53.8604 285.025 53.6497 284.502 53.6363C283.979 53.6229 283.47 53.8078 283.077 54.1539L281.631 55.4434C281.288 55.7608 281.063 56.1853 280.993 56.6474C280.923 57.1095 281.012 57.5816 281.246 57.9864Z" fill="white"/>
<path d="M335.937 49.309C329.44 51.0311 323.217 53.6559 317.449 57.1066C316.549 57.6698 315.843 58.4945 315.425 59.4703C315.007 60.4461 314.898 61.5263 315.111 62.5661C317.437 73.9431 322.728 89.1765 328.44 98.8782L355.087 87.8508C355.268 83.1506 348.796 67.9412 342.204 53.238C341.023 50.5986 338.745 48.6341 335.937 49.309Z" fill="#6756D8"/>
<path opacity="0.8" d="M335.937 49.309C329.44 51.0311 323.217 53.6559 317.449 57.1066C316.549 57.6698 315.843 58.4945 315.425 59.4703C315.007 60.4461 314.898 61.5263 315.111 62.5661C317.437 73.9431 322.728 89.1765 328.44 98.8782L355.087 87.8508C355.268 83.1506 348.796 67.9412 342.204 53.238C341.023 50.5986 338.745 48.6341 335.937 49.309Z" fill="white"/>
<path opacity="0.3" d="M346.338 62.5541L341.047 60.7825C342.252 63.8798 346.506 67.7966 349.483 70.0985C348.519 67.6881 347.446 65.1573 346.338 62.5541Z" fill="#6756D8"/>
<path d="M334.19 37.3779C331.984 33.1839 327.224 31.0747 321.511 31.5447C316.69 31.9545 312.424 36.8717 312.93 39.5231C313.436 42.1745 317.486 43.3074 318.257 44.2233L314.919 46.6336C314.141 47.1948 313.618 48.0419 313.465 48.9886C313.313 49.9352 313.542 50.9038 314.103 51.6813C314.133 51.7228 314.164 51.7637 314.196 51.8039C315.606 53.5875 317.462 55.4194 318.534 56.7692C327.766 56.5282 334.599 53.009 337.07 49.6225C336.142 45.332 336.335 41.5478 334.19 37.3779Z" fill="#6756D8"/>
<path opacity="0.8" d="M334.19 37.3779C331.984 33.1839 327.224 31.0747 321.511 31.5447C316.69 31.9545 312.424 36.8717 312.93 39.5231C313.436 42.1745 317.486 43.3074 318.257 44.2233L314.919 46.6336C314.141 47.1948 313.618 48.0419 313.465 48.9886C313.313 49.9352 313.542 50.9038 314.103 51.6813C314.133 51.7228 314.164 51.7637 314.196 51.8039C315.606 53.5875 317.462 55.4194 318.534 56.7692C327.766 56.5282 334.599 53.009 337.07 49.6225C336.142 45.332 336.335 41.5478 334.19 37.3779Z" fill="white"/>
<path d="M329.658 39.981C330.313 41.6617 330.456 43.4991 330.067 45.2608C329.678 47.0224 328.776 48.6293 327.474 49.8783C326.173 51.1273 324.53 51.9624 322.754 52.278C320.977 52.5935 319.148 52.3754 317.495 51.6511C315.843 50.9269 314.443 49.729 313.471 48.209C312.499 46.689 312 44.9151 312.037 43.1115C312.073 41.3078 312.643 39.5554 313.675 38.0758C314.707 36.5962 316.155 35.4558 317.835 34.7987C318.951 34.3621 320.143 34.1498 321.342 34.174C322.54 34.1981 323.722 34.4582 324.82 34.9395C325.918 35.4208 326.911 36.1138 327.741 36.9789C328.571 37.844 329.222 38.864 329.658 39.981Z" fill="#263238"/>
<path d="M407.91 148.592C407.778 144.627 407.597 144.977 407.488 141.638C407.416 139.589 407.404 137.312 407.392 135.347C407.388 134.414 407.062 133.511 406.469 132.791C405.876 132.071 405.053 131.577 404.138 131.394C402.547 131.069 400.944 130.767 399.317 130.43C397.232 129.984 395.171 129.502 393.135 128.911C391.544 128.453 389.977 127.947 388.422 127.381C386.868 126.814 385.12 126.176 383.505 125.428C381.601 124.621 379.721 123.753 377.865 122.849C375.78 121.861 373.719 120.825 371.658 119.776C363.728 106.652 363.559 97.9985 355.051 87.8508L336.78 96.1184C336.78 96.1184 350.206 119.933 359.341 130.032C364.608 135.841 372.863 138.468 380.227 140.373C385.542 141.735 390.929 142.783 396.316 143.783C398.413 144.169 400.691 144.314 402.499 145.567C403.836 146.593 404.754 148.071 405.078 149.725C405.158 150.062 405.231 150.4 405.295 150.737C405.524 151.75 407.995 150.978 407.91 148.592Z" fill="#6756D8"/>
<path opacity="0.8" d="M407.91 148.592C407.778 144.627 407.597 144.977 407.488 141.638C407.416 139.589 407.404 137.312 407.392 135.347C407.388 134.414 407.062 133.511 406.469 132.791C405.876 132.071 405.053 131.577 404.138 131.394C402.547 131.069 400.944 130.767 399.317 130.43C397.232 129.984 395.171 129.502 393.135 128.911C391.544 128.453 389.977 127.947 388.422 127.381C386.868 126.814 385.12 126.176 383.505 125.428C381.601 124.621 379.721 123.753 377.865 122.849C375.78 121.861 373.719 120.825 371.658 119.776C363.728 106.652 363.559 97.9985 355.051 87.8508L336.78 96.1184C336.78 96.1184 350.206 119.933 359.341 130.032C364.608 135.841 372.863 138.468 380.227 140.373C385.542 141.735 390.929 142.783 396.316 143.783C398.413 144.169 400.691 144.314 402.499 145.567C403.836 146.593 404.754 148.071 405.078 149.725C405.158 150.062 405.231 150.4 405.295 150.737C405.524 151.75 407.995 150.978 407.91 148.592Z" fill="white"/>
<path opacity="0.3" d="M398.643 130.273C397.919 130.117 397.196 129.96 396.461 129.779C396.521 133.949 394.569 141.132 393.858 143.313L396.148 143.747C397.648 139.406 398.489 134.864 398.643 130.273Z" fill="#6756D8"/>
<path opacity="0.3" d="M407.44 135.347C407.437 134.416 407.112 133.514 406.522 132.794C405.931 132.074 405.111 131.58 404.198 131.394L402.993 131.165C403.187 132.535 403.888 133.783 404.958 134.66C405.646 135.296 406.47 135.766 407.368 136.034C407.428 135.81 407.453 135.579 407.44 135.347Z" fill="#6756D8"/>
<path d="M327.959 40.0533C328.441 41.8852 326.392 43.8014 324.765 42.2226C323.246 40.5945 321.584 39.1061 319.799 37.7755C318.124 36.727 320.354 34.8951 322.993 35.6062C324.119 35.8891 325.16 36.4418 326.025 37.2165C326.89 37.9913 327.554 38.9649 327.959 40.0533Z" fill="white"/>
<path d="M328.091 98.2877C327.247 98.6011 328.79 100.047 328.79 100.047C328.79 100.047 345.663 94.2745 355.907 88.3329C355.932 87.9732 355.87 87.6128 355.728 87.2816C355.585 86.9504 355.365 86.658 355.087 86.4287C346.32 90.8886 337.307 94.8479 328.091 98.2877Z" fill="#6756D8"/>
<path opacity="0.5" d="M328.091 98.2877C327.247 98.6011 328.79 100.047 328.79 100.047C328.79 100.047 345.663 94.2745 355.907 88.3329C355.932 87.9732 355.87 87.6128 355.728 87.2816C355.585 86.9504 355.365 86.658 355.087 86.4287C346.32 90.8886 337.307 94.8479 328.091 98.2877Z" fill="white"/>
<path d="M340.505 48.5136C343.831 50.2009 346.952 51.9725 350.146 53.937C351.701 54.9252 353.243 55.9255 354.774 57.0102C356.304 58.0949 357.823 59.2036 359.354 60.457L359.92 60.9269L360.631 61.5778C361.055 61.9569 361.457 62.3593 361.836 62.783C362.222 63.2048 362.547 63.6145 362.861 63.9881C363.174 64.3617 363.511 64.8076 363.789 65.1933C364.912 66.7427 365.95 68.352 366.898 70.0141C368.766 73.2372 370.378 76.6019 371.719 80.0773C371.967 80.734 371.979 81.4563 371.755 82.1213C371.531 82.7863 371.083 83.353 370.488 83.7252C369.892 84.0973 369.187 84.2518 368.491 84.1624C367.795 84.073 367.151 83.7453 366.669 83.2349L366.609 83.1627C364.198 80.5957 361.872 77.896 359.534 75.3771C357.196 72.8583 354.822 70.3034 352.858 69.1826C350.122 67.4832 347.073 65.7839 344.048 64.1208L334.937 59.059C333.526 58.31 332.47 57.0316 332.001 55.5046C331.532 53.9776 331.688 52.3268 332.436 50.9151C333.183 49.5034 334.46 48.446 335.987 47.9754C337.513 47.5048 339.164 47.6594 340.577 48.4052L340.505 48.5136Z" fill="#6756D8"/>
<path opacity="0.8" d="M340.505 48.5136C343.831 50.2009 346.952 51.9725 350.146 53.937C351.701 54.9252 353.243 55.9255 354.774 57.0102C356.304 58.0949 357.823 59.2036 359.354 60.457L359.92 60.9269L360.631 61.5778C361.055 61.9569 361.457 62.3593 361.836 62.783C362.222 63.2048 362.547 63.6145 362.861 63.9881C363.174 64.3617 363.511 64.8076 363.789 65.1933C364.912 66.7427 365.95 68.352 366.898 70.0141C368.766 73.2372 370.378 76.6019 371.719 80.0773C371.967 80.734 371.979 81.4563 371.755 82.1213C371.531 82.7863 371.083 83.353 370.488 83.7252C369.892 84.0973 369.187 84.2518 368.491 84.1624C367.795 84.073 367.151 83.7453 366.669 83.2349L366.609 83.1627C364.198 80.5957 361.872 77.896 359.534 75.3771C357.196 72.8583 354.822 70.3034 352.858 69.1826C350.122 67.4832 347.073 65.7839 344.048 64.1208L334.937 59.059C333.526 58.31 332.47 57.0316 332.001 55.5046C331.532 53.9776 331.688 52.3268 332.436 50.9151C333.183 49.5034 334.46 48.446 335.987 47.9754C337.513 47.5048 339.164 47.6594 340.577 48.4052L340.505 48.5136Z" fill="white"/>
<path d="M374.575 86.0913L373.551 83.5243C373.551 83.5243 372.984 80.2462 370.948 79.3303L364.922 80.2823L365.127 80.8126C365.681 82.0178 365.259 84.2234 364.717 85.9829C364.174 87.7425 365.09 87.9715 365.862 87.6219C366.296 87.4291 366.717 86.6457 367.175 85.8141C367.4 86.233 367.654 86.6358 367.935 87.0193L369.417 89.056C369.727 89.4781 370.185 89.7674 370.699 89.8657C371.213 89.9641 371.745 89.8643 372.189 89.5863L373.828 88.5378C374.212 88.2753 374.495 87.8901 374.63 87.4456C374.766 87.001 374.747 86.5234 374.575 86.0913Z" fill="#6756D8"/>
<path opacity="0.8" d="M374.575 86.0913L373.551 83.5243C373.551 83.5243 372.984 80.2462 370.948 79.3303L364.922 80.2823L365.127 80.8126C365.681 82.0178 365.259 84.2234 364.717 85.9829C364.174 87.7425 365.09 87.9715 365.862 87.6219C366.296 87.4291 366.717 86.6457 367.175 85.8141C367.4 86.233 367.654 86.6358 367.935 87.0193L369.417 89.056C369.727 89.4781 370.185 89.7674 370.699 89.8657C371.213 89.9641 371.745 89.8643 372.189 89.5863L373.828 88.5378C374.212 88.2753 374.495 87.8901 374.63 87.4456C374.766 87.001 374.747 86.5234 374.575 86.0913Z" fill="white"/>
<path opacity="0.3" d="M335.419 62.3733L333.948 62.4938L324.921 84.2836C325.415 84.3191 325.911 84.2783 326.392 84.163C326.392 84.163 338.154 79.7761 341.71 78.1371C339.323 73.2079 335.419 62.3733 335.419 62.3733Z" fill="#6756D8"/>
<path d="M318.944 68.0858C320.041 73.7818 322.077 79.2557 324.97 84.2836C329.381 82.765 336.732 79.8966 340.3 78.2576C337.902 73.1174 335.774 67.8556 333.924 62.4938C330.152 62.7469 321.872 65.9165 318.944 68.0858Z" fill="white"/>
<path opacity="0.3" d="M327.898 72.798C327.722 73.3872 327.375 73.911 326.901 74.303C326.427 74.6951 325.848 74.9379 325.236 75.0007C324.624 75.0634 324.008 74.9433 323.464 74.6556C322.921 74.3679 322.475 73.9254 322.183 73.3842C321.891 72.843 321.766 72.2274 321.823 71.6152C321.881 71.0029 322.119 70.4216 322.507 69.9446C322.896 69.4677 323.417 69.1165 324.004 68.9356C324.592 68.7547 325.22 68.7523 325.81 68.9284L325.813 68.9294C326.602 69.1663 327.265 69.7069 327.656 70.4323C328.047 71.1577 328.134 72.0085 327.898 72.798Z" fill="#6756D8"/>
<path opacity="0.6" d="M330.2 68.6523C330.154 68.8496 330.051 69.0288 329.903 69.1672C329.755 69.3057 329.569 69.3972 329.369 69.4302C329.169 69.4631 328.964 69.4361 328.78 69.3524C328.595 69.2687 328.439 69.1322 328.333 68.9601C328.226 68.788 328.172 68.588 328.179 68.3855C328.185 68.183 328.252 67.987 328.37 67.8224C328.488 67.6577 328.652 67.5317 328.842 67.4604C329.032 67.3891 329.238 67.3757 329.436 67.4217C329.466 67.4288 329.496 67.4373 329.525 67.4471C329.77 67.5252 329.975 67.693 330.1 67.9167C330.225 68.1404 330.261 68.4033 330.2 68.6523Z" fill="#6756D8"/>
<path opacity="0.6" d="M332.9 67.6038C332.871 67.7436 332.814 67.876 332.732 67.9924C332.649 68.1089 332.544 68.2067 332.421 68.2799C332.299 68.3531 332.162 68.3999 332.021 68.4173C331.879 68.4348 331.735 68.4224 331.599 68.3811C331.462 68.3398 331.336 68.2704 331.228 68.1775C331.12 68.0845 331.032 67.9699 330.971 67.8412C330.909 67.7124 330.876 67.5723 330.872 67.4297C330.867 67.2871 330.893 67.1453 330.947 67.0133C331.025 66.7563 331.202 66.5407 331.438 66.4139C331.675 66.2872 331.952 66.2595 332.209 66.3373L332.213 66.3384C332.471 66.4165 332.687 66.5931 332.816 66.8299C332.944 67.0668 332.975 67.3449 332.9 67.6038Z" fill="#6756D8"/>
<path opacity="0.5" d="M336.684 76.9919L325.536 81.391L324.873 79.198L336.009 74.799L336.684 76.9919Z" fill="#6756D8"/>
<path d="M113.846 308.158L134.936 329.249L193.99 273.606C173.635 265.832 134.057 287.899 113.846 308.158Z" fill="#263238"/>
<path opacity="0.18" d="M287.404 271.019L310.411 226.656L266.048 249.688C251.799 257.078 238.641 266.406 226.952 277.407L151.327 348.597L188.482 385.753L259.673 310.128C270.679 298.435 280.011 285.274 287.404 271.019Z" fill="#263238"/>
<path d="M187.398 381.675C180.661 374.926 166.307 360.584 166.307 360.584L221.95 301.53C229.676 321.837 207.609 361.452 187.398 381.675Z" fill="#263238"/>
<path d="M268.121 248.743L291.128 204.38L246.765 227.411C232.516 234.801 219.359 244.13 207.669 255.13L132.044 326.32L169.2 363.476L240.39 287.851C251.396 276.158 260.728 262.997 268.121 248.743Z" fill="#6756D8"/>
<path opacity="0.6" d="M268.121 248.743L291.128 204.38L246.765 227.411C232.516 234.801 219.359 244.13 207.669 255.13L132.044 326.32L169.2 363.476L240.39 287.851C251.396 276.158 260.728 262.997 268.121 248.743Z" fill="white"/>
<path d="M220.878 290.177C229.464 290.177 236.425 283.216 236.425 274.63C236.425 266.044 229.464 259.083 220.878 259.083C212.292 259.083 205.331 266.044 205.331 274.63C205.331 283.216 212.292 290.177 220.878 290.177Z" fill="white"/>
<path d="M220.878 284.621C226.396 284.621 230.869 280.148 230.869 274.63C230.869 269.112 226.396 264.639 220.878 264.639C215.36 264.639 210.887 269.112 210.887 274.63C210.887 280.148 215.36 284.621 220.878 284.621Z" fill="#6756D8"/>
<path opacity="0.3" d="M181.77 350.123L145.385 313.738L175.178 285.706L209.803 320.343L181.77 350.123Z" fill="#6756D8"/>
<path d="M122.077 341.446C94.8399 343.651 85.8131 361.09 82.7278 384.266C81.1611 396.088 80.4621 408.056 70.5434 414.974C69.9467 415.379 69.4974 415.967 69.2629 416.65C69.0283 417.332 69.0211 418.072 69.2423 418.758C69.4636 419.445 69.9013 420.042 70.49 420.459C71.0787 420.876 71.7866 421.091 72.5078 421.072C109.073 419.927 126.126 402.03 128.272 394.558C127.709 398.464 126.702 402.293 125.271 405.971C125.008 406.62 124.956 407.336 125.124 408.016C125.291 408.695 125.669 409.305 126.203 409.758C126.737 410.211 127.401 410.483 128.099 410.537C128.797 410.591 129.494 410.423 130.092 410.057C140.348 403.633 153.219 391.798 154.075 372.599C146.53 361.909 122.077 341.446 122.077 341.446Z" fill="#6756D8"/>
<path opacity="0.2" d="M122.077 341.446C94.8399 343.651 85.8131 361.09 82.7278 384.266C81.1611 396.088 80.4621 408.056 70.5434 414.974C69.9467 415.379 69.4974 415.967 69.2629 416.65C69.0283 417.332 69.0211 418.072 69.2423 418.758C69.4636 419.445 69.9013 420.042 70.49 420.459C71.0787 420.876 71.7866 421.091 72.5078 421.072C109.073 419.927 126.126 402.03 128.272 394.558C127.709 398.464 126.702 402.293 125.271 405.971C125.008 406.62 124.956 407.336 125.124 408.016C125.291 408.695 125.669 409.305 126.203 409.758C126.737 410.211 127.401 410.483 128.099 410.537C128.797 410.591 129.494 410.423 130.092 410.057C140.348 403.633 153.219 391.798 154.075 372.599C146.53 361.909 122.077 341.446 122.077 341.446Z" fill="white"/>
<path d="M158.305 380.831L114.677 337.203L137.913 332.178L163.331 357.595L158.305 380.831Z" fill="#6756D8"/>
</svg>
