<svg width="690" height="726" viewBox="0 0 690 726" fill="none" xmlns="http://www.w3.org/2000/svg">
<path d="M622.196 558.123C616.86 564.307 613.254 571.792 611.745 579.819L590.798 591.572V536.029L591.195 536.602L624.6 512.149C628.811 512.811 645.018 514.663 659.879 506.703C676.901 497.464 689.426 465.735 689.426 465.735C689.426 465.735 648.568 461.127 634.721 478.259C627.126 487.154 623.083 498.539 623.365 510.231L590.798 534.089V493.076C596.894 490.237 602.282 486.077 606.572 480.898C610.862 475.719 613.947 469.651 615.604 463.133C621.535 440.047 589.894 394.559 589.894 394.559C589.894 394.559 556.93 441.37 563.434 465.118C569.013 485.227 584.029 491.577 588.505 493.076V582.046L565.066 562.488C565.595 557.814 566.014 543.151 552.961 528.444C537.129 510.65 494.948 511.973 494.948 511.973C494.948 511.973 512.742 547.561 528.023 559.446C541.252 569.809 559.553 565.575 563.941 564.341L588.681 584.957V611.99H551.836L566.83 705.701H611.811L626.805 611.99H590.798V594.108L613.818 581.209C619.418 582.752 635.073 585.971 649.891 578.563C668.346 569.368 683.494 549.523 683.494 549.523C683.494 549.523 639.329 538.344 622.196 558.123Z" fill="#6756D8"/>
<path opacity="0.5" d="M622.196 558.123C616.86 564.307 613.254 571.792 611.745 579.819L590.798 591.572V536.029L591.195 536.602L624.6 512.149C628.811 512.811 645.018 514.663 659.879 506.703C676.901 497.464 689.426 465.735 689.426 465.735C689.426 465.735 648.568 461.127 634.721 478.259C627.126 487.154 623.083 498.539 623.365 510.231L590.798 534.089V493.076C596.894 490.237 602.282 486.077 606.572 480.898C610.862 475.719 613.947 469.651 615.604 463.133C621.535 440.047 589.894 394.559 589.894 394.559C589.894 394.559 556.93 441.37 563.434 465.118C569.013 485.227 584.029 491.577 588.505 493.076V582.046L565.066 562.488C565.595 557.814 566.014 543.151 552.961 528.444C537.129 510.65 494.948 511.973 494.948 511.973C494.948 511.973 512.742 547.561 528.023 559.446C541.252 569.809 559.553 565.575 563.941 564.341L588.681 584.957V611.99H551.836L566.83 705.701H611.811L626.805 611.99H590.798V594.108L613.818 581.209C619.418 582.752 635.073 585.971 649.891 578.563C668.346 569.368 683.494 549.523 683.494 549.523C683.494 549.523 639.329 538.344 622.196 558.123Z" fill="white"/>
<path d="M26.284 26.9702H530.845C537.663 26.9702 544.203 29.6789 549.024 34.5005C553.846 39.322 556.555 45.8614 556.555 52.6801V370.657C556.555 374.033 555.889 377.377 554.597 380.496C553.305 383.615 551.412 386.449 549.024 388.837C546.637 391.224 543.803 393.118 540.683 394.41C537.564 395.702 534.221 396.367 530.845 396.367H26.284C22.9078 396.367 19.5646 395.702 16.4453 394.41C13.3261 393.118 10.4918 391.224 8.10446 388.837C5.71708 386.449 3.8233 383.615 2.53127 380.496C1.23923 377.377 0.574219 374.033 0.574219 370.657V52.6801C0.574219 45.8614 3.28294 39.322 8.10446 34.5005C12.926 29.6789 19.4654 26.9702 26.284 26.9702L26.284 26.9702Z" fill="#6756D8" stroke="#263238" stroke-miterlimit="10" stroke-linecap="round"/>
<path opacity="0.7" d="M26.284 26.9702H530.845C537.663 26.9702 544.203 29.6789 549.024 34.5005C553.846 39.322 556.555 45.8614 556.555 52.6801V370.657C556.555 374.033 555.889 377.377 554.597 380.496C553.305 383.615 551.412 386.449 549.024 388.837C546.637 391.224 543.803 393.118 540.683 394.41C537.564 395.702 534.221 396.367 530.845 396.367H26.284C22.9078 396.367 19.5646 395.702 16.4453 394.41C13.3261 393.118 10.4918 391.224 8.10446 388.837C5.71708 386.449 3.8233 383.615 2.53127 380.496C1.23923 377.377 0.574219 374.033 0.574219 370.657V52.6801C0.574219 45.8614 3.28294 39.322 8.10446 34.5005C12.926 29.6789 19.4654 26.9702 26.284 26.9702L26.284 26.9702Z" fill="#6756D8" stroke="#263238" stroke-miterlimit="10" stroke-linecap="round"/>
<path d="M235.072 233.487H170.025V269.979H235.072V233.487Z" fill="white"/>
<path d="M235.072 276.572H170.025V313.064H235.072V276.572Z" fill="white"/>
<path d="M306.733 233.487H241.687V269.979H306.733V233.487Z" fill="white"/>
<path d="M378.416 190.38H313.37V226.872H378.416V190.38Z" fill="white"/>
<path d="M378.416 147.273H313.37V183.765H378.416V147.273Z" fill="white"/>
<path d="M378.416 67.6077H313.37V97.551H378.416V67.6077Z" fill="#263238"/>
<path d="M306.733 67.6077H241.687V97.551H306.733V67.6077Z" fill="#263238"/>
<path d="M306.733 276.572H241.687V313.064H306.733V276.572Z" fill="white"/>
<path d="M306.733 104.166H241.687V140.658H306.733V104.166Z" fill="white"/>
<path d="M306.733 147.273H241.687V183.765H306.733V147.273Z" fill="white"/>
<path d="M306.733 190.38H241.687V226.872H306.733V190.38Z" fill="white"/>
<path d="M378.416 276.572H313.37V313.064H378.416V276.572Z" fill="white"/>
<path d="M91.7268 104.166H22.3809V140.658H91.7268V104.166Z" fill="white"/>
<path d="M91.7268 190.38H22.3809V226.872H91.7268V190.38Z" fill="white"/>
<path d="M91.7268 233.487H22.3809V269.979H91.7268V233.487Z" fill="white"/>
<path d="M91.7268 147.273H22.3809V183.765H91.7268V147.273Z" fill="white"/>
<path d="M526.06 67.6077H456.714V97.551H526.06V67.6077Z" fill="#263238"/>
<path d="M91.7268 276.572H22.3809V313.064H91.7268V276.572Z" fill="white"/>
<path d="M450.078 104.166H385.031V140.658H450.078V104.166Z" fill="white"/>
<path d="M378.416 233.487H313.37V269.979H378.416V233.487Z" fill="white"/>
<path d="M450.078 233.487H385.031V269.979H450.078V233.487Z" fill="white"/>
<path d="M450.078 147.273H385.031V183.765H450.078V147.273Z" fill="white"/>
<path d="M450.078 190.38H385.031V226.872H450.078V190.38Z" fill="white"/>
<path d="M450.078 276.572H385.031V313.064H450.078V276.572Z" fill="white"/>
<path d="M378.416 104.166H313.37V140.658H378.416V104.166Z" fill="white"/>
<path d="M526.06 276.572H456.714V313.064H526.06V276.572Z" fill="white"/>
<path d="M450.078 67.6077H385.031V97.551H450.078V67.6077Z" fill="#263238"/>
<path d="M526.06 233.487H456.714V269.979H526.06V233.487Z" fill="white"/>
<path d="M450.078 319.679H385.031V358.243H450.078V319.679Z" fill="white"/>
<path d="M526.06 190.38H456.714V226.872H526.06V190.38Z" fill="white"/>
<path d="M306.733 319.679H241.687V358.243H306.733V319.679Z" fill="white"/>
<path d="M378.416 319.679H313.37V358.243H378.416V319.679Z" fill="white"/>
<path d="M526.06 147.273H456.714V183.765H526.06V147.273Z" fill="white"/>
<path d="M526.06 319.679H456.714V358.243H526.06V319.679Z" fill="white"/>
<path d="M91.7268 319.679H22.3809V358.243H91.7268V319.679Z" fill="white"/>
<path d="M526.06 104.166H456.714V140.658H526.06V104.166Z" fill="white"/>
<path d="M91.7268 67.6077H22.3809V97.551H91.7268V67.6077Z" fill="#263238"/>
<path d="M163.388 67.6077H98.3418V97.551H163.388V67.6077Z" fill="#263238"/>
<path d="M163.388 233.487H98.3418V269.979H163.388V233.487Z" fill="white"/>
<path d="M235.072 67.6077H170.025V97.551H235.072V67.6077Z" fill="#263238"/>
<path d="M235.072 147.273H170.025V183.765H235.072V147.273Z" fill="white"/>
<path d="M163.388 276.572H98.3418V313.064H163.388V276.572Z" fill="white"/>
<path d="M235.072 104.166H170.025V140.658H235.072V104.166Z" fill="white"/>
<path d="M163.388 104.166H98.3418V140.658H163.388V104.166Z" fill="white"/>
<path d="M235.072 190.38H170.025V226.872H235.072V190.38Z" fill="white"/>
<path d="M163.388 190.38H98.3418V226.872H163.388V190.38Z" fill="white"/>
<path d="M163.388 319.679H98.3418V358.243H163.388V319.679Z" fill="white"/>
<path d="M163.388 147.273H98.3418V183.765H163.388V147.273Z" fill="white"/>
<path d="M235.072 319.679H170.025V358.243H235.072V319.679Z" fill="white"/>
<path d="M52.9863 47.4765C58.1618 47.4765 62.3574 43.2809 62.3574 38.1054C62.3574 32.9299 58.1618 28.7344 52.9863 28.7344C47.8108 28.7344 43.6152 32.9299 43.6152 38.1054C43.6152 43.2809 47.8108 47.4765 52.9863 47.4765Z" fill="white" stroke="#263238" stroke-miterlimit="10" stroke-linecap="round"/>
<path d="M94.087 38.1053C94.0914 36.2475 93.5447 34.4302 92.5162 32.8831C91.4877 31.336 90.0235 30.1286 88.3088 29.4136C86.5941 28.6987 84.7059 28.5082 82.883 28.8664C81.0601 29.2246 79.3843 30.1153 78.0676 31.4258C76.7508 32.7364 75.8523 34.408 75.4856 36.2292C75.1189 38.0504 75.3005 39.9395 76.0074 41.6575C76.7143 43.3756 77.9148 44.8454 79.4571 45.8811C80.9993 46.9169 82.8141 47.4721 84.6719 47.4764C84.6865 47.4764 84.7012 47.4764 84.7159 47.4764C85.9465 47.4764 87.1651 47.234 88.302 46.7631C89.439 46.2922 90.4721 45.6019 91.3423 44.7317C92.2124 43.8615 92.9027 42.8285 93.3737 41.6915C93.8446 40.5546 94.087 39.336 94.087 38.1053Z" fill="white" stroke="#263238" stroke-miterlimit="10" stroke-linecap="round"/>
<path d="M53.1622 44.2131C52.5164 44.2131 51.8771 44.0859 51.2805 43.8388C50.6839 43.5917 50.1419 43.2295 49.6853 42.7729C49.2287 42.3163 48.8665 41.7743 48.6194 41.1777C48.3723 40.5811 48.2452 39.9418 48.2452 39.2961V6.04526C48.2423 5.39954 48.3666 4.75959 48.611 4.16193C48.8554 3.56426 49.2152 3.02058 49.6697 2.56195C50.1243 2.10332 50.6647 1.7387 51.2602 1.48892C51.8556 1.23915 52.4944 1.10909 53.1402 1.1062H53.1622C53.8108 1.1062 54.4531 1.23397 55.0523 1.48218C55.6516 1.73039 56.1961 2.09419 56.6547 2.55283C57.1134 3.01146 57.4772 3.55594 57.7254 4.15518C57.9736 4.75442 58.1014 5.39671 58.1014 6.04532V39.296C58.1014 39.9417 57.9742 40.5811 57.7271 41.1777C57.48 41.7743 57.1178 42.3163 56.6612 42.7729C56.2046 43.2295 55.6626 43.5917 55.066 43.8388C54.4695 44.0859 53.8301 44.2131 53.1843 44.2131L53.1622 44.2131Z" fill="white" stroke="#263238" stroke-miterlimit="10" stroke-linecap="round"/>
<path d="M85.1788 44.2131C84.5331 44.2131 83.8937 44.0859 83.2971 43.8388C82.7005 43.5917 82.1585 43.2295 81.7019 42.7729C81.2453 42.3163 80.8831 41.7743 80.636 41.1777C80.3889 40.5811 80.2618 39.9418 80.2618 39.2961V6.04526C80.2589 5.39954 80.3832 4.75959 80.6276 4.16193C80.8721 3.56426 81.2318 3.02058 81.6864 2.56195C82.1409 2.10332 82.6813 1.7387 83.2768 1.48892C83.8722 1.23915 84.5111 1.10909 85.1568 1.1062H85.1789C85.8275 1.1062 86.4697 1.23397 87.069 1.48218C87.6682 1.73039 88.2127 2.09419 88.6713 2.55283C89.13 3.01146 89.4938 3.55594 89.742 4.15518C89.9902 4.75442 90.118 5.39671 90.118 6.04532V39.296C90.118 40.6001 89.6 41.8508 88.6778 42.7729C87.7557 43.6951 86.5051 44.2131 85.201 44.2131L85.1788 44.2131Z" fill="white" stroke="#263238" stroke-miterlimit="10" stroke-linecap="round"/>
<path d="M485.511 38.1054C485.515 36.2476 484.969 34.4302 483.94 32.8831C482.912 31.336 481.447 30.1286 479.733 29.4136C478.018 28.6987 476.13 28.5082 474.307 28.8664C472.484 29.2246 470.808 30.1153 469.491 31.4258C468.175 32.7364 467.276 34.408 466.909 36.2292C466.543 38.0504 466.724 39.9395 467.431 41.6575C468.138 43.3756 469.339 44.8454 470.881 45.8812C472.423 46.9169 474.238 47.4721 476.096 47.4765C476.11 47.4765 476.125 47.4765 476.14 47.4765C478.625 47.4765 481.009 46.4891 482.766 44.7317C484.524 42.9743 485.511 40.5907 485.511 38.1054Z" fill="white" stroke="#263238" stroke-miterlimit="10" stroke-linecap="round"/>
<path d="M507.847 47.4765C513.022 47.4765 517.218 43.2809 517.218 38.1054C517.218 32.9299 513.022 28.7344 507.847 28.7344C502.671 28.7344 498.476 32.9299 498.476 38.1054C498.476 43.2809 502.671 47.4765 507.847 47.4765Z" fill="white" stroke="#263238" stroke-miterlimit="10" stroke-linecap="round"/>
<path d="M476.294 44.2131C475.648 44.2131 475.009 44.0859 474.412 43.8388C473.816 43.5917 473.274 43.2296 472.817 42.773C472.361 42.3164 471.998 41.7743 471.751 41.1778C471.504 40.5812 471.377 39.9418 471.377 39.2961V6.04526C471.371 4.74119 471.884 3.4882 472.802 2.56195C473.72 1.6357 474.968 1.11205 476.272 1.1062H476.294C476.943 1.1062 477.585 1.23396 478.184 1.48218C478.783 1.73039 479.328 2.09419 479.787 2.55283C480.245 3.01146 480.609 3.55597 480.857 4.15521C481.105 4.75445 481.233 5.39671 481.233 6.04532V39.296C481.233 40.6001 480.715 41.8508 479.793 42.7729C478.871 43.6951 477.62 44.2131 476.316 44.2131L476.294 44.2131Z" fill="white" stroke="#263238" stroke-miterlimit="10" stroke-linecap="round"/>
<path d="M508.332 44.2131C507.687 44.2247 507.045 44.109 506.444 43.8727C505.843 43.6363 505.295 43.2839 504.83 42.8355C504.366 42.3872 503.994 41.8517 503.736 41.2597C503.478 40.6677 503.34 40.0307 503.328 39.385C503.327 39.3554 503.327 39.3257 503.327 39.2961V6.04529C503.327 5.39668 503.455 4.75442 503.703 4.15518C503.951 3.55594 504.315 3.01146 504.774 2.55283C505.232 2.09419 505.777 1.73036 506.376 1.48215C506.975 1.23393 507.618 1.1062 508.266 1.1062C509.57 1.10619 510.821 1.62421 511.743 2.54633C512.665 3.46844 513.183 4.71911 513.183 6.02319L513.183 6.04532V39.2961C513.183 40.5888 512.675 41.8295 511.767 42.7498C510.859 43.67 509.625 44.1958 508.332 44.2131Z" fill="white" stroke="#263238" stroke-miterlimit="10" stroke-linecap="round"/>
<path d="M264.574 47.4765C269.75 47.4765 273.945 43.2809 273.945 38.1054C273.945 32.9299 269.75 28.7344 264.574 28.7344C259.399 28.7344 255.203 32.9299 255.203 38.1054C255.203 43.2809 259.399 47.4765 264.574 47.4765Z" fill="white" stroke="#263238" stroke-miterlimit="10" stroke-linecap="round"/>
<path d="M296.281 47.4765C301.457 47.4765 305.652 43.2809 305.652 38.1054C305.652 32.9299 301.457 28.7344 296.281 28.7344C291.106 28.7344 286.91 32.9299 286.91 38.1054C286.91 43.2809 291.106 47.4765 296.281 47.4765Z" fill="white" stroke="#263238" stroke-miterlimit="10" stroke-linecap="round"/>
<path d="M264.729 44.2131C264.083 44.2131 263.444 44.0859 262.847 43.8388C262.25 43.5917 261.708 43.2295 261.252 42.7729C260.795 42.3164 260.433 41.7743 260.186 41.1777C259.939 40.5812 259.812 39.9418 259.812 39.2961V6.04526C259.809 5.39954 259.933 4.75959 260.177 4.16193C260.422 3.56426 260.782 3.02058 261.236 2.56195C261.691 2.10332 262.231 1.7387 262.827 1.48892C263.422 1.23915 264.061 1.10909 264.707 1.1062H264.729C265.377 1.1062 266.02 1.23397 266.619 1.48218C267.218 1.73039 267.762 2.09419 268.221 2.55283C268.68 3.01146 269.044 3.55594 269.292 4.15518C269.54 4.75442 269.668 5.39671 269.668 6.04532V39.296C269.668 40.6001 269.15 41.8508 268.228 42.7729C267.306 43.6951 266.055 44.2131 264.751 44.2131L264.729 44.2131Z" fill="white" stroke="#263238" stroke-miterlimit="10" stroke-linecap="round"/>
<path d="M296.744 44.2131C296.098 44.2131 295.459 44.0859 294.863 43.8388C294.266 43.5917 293.724 43.2295 293.267 42.7729C292.811 42.3163 292.449 41.7743 292.201 41.1777C291.954 40.5811 291.827 39.9418 291.827 39.2961V6.04526C291.824 5.39954 291.949 4.75959 292.193 4.16193C292.438 3.56426 292.797 3.02058 293.252 2.56195C293.706 2.10332 294.247 1.7387 294.842 1.48892C295.438 1.23915 296.077 1.10909 296.722 1.1062H296.744C297.393 1.1062 298.035 1.23397 298.634 1.48218C299.234 1.73039 299.778 2.09419 300.237 2.55283C300.695 3.01146 301.059 3.55594 301.307 4.15518C301.556 4.75442 301.683 5.39671 301.683 6.04532V39.296C301.683 40.6001 301.165 41.8508 300.243 42.7729C299.321 43.6951 298.07 44.2131 296.766 44.2131L296.744 44.2131Z" fill="white" stroke="#263238" stroke-miterlimit="10" stroke-linecap="round"/>
<path d="M67.4065 150.448L34.5967 179.377" stroke="#263238" stroke-width="2" stroke-linecap="round" stroke-linejoin="round"/>
<path d="M44.6953 150.448L67.4064 177.437" stroke="#263238" stroke-width="2" stroke-linecap="round" stroke-linejoin="round"/>
<path d="M430.541 109.303L397.731 138.21" stroke="#263238" stroke-width="2" stroke-linecap="round" stroke-linejoin="round"/>
<path d="M407.83 109.303L430.541 136.292" stroke="#263238" stroke-width="2" stroke-linecap="round" stroke-linejoin="round"/>
<path d="M215.536 109.303L182.704 138.21" stroke="#263238" stroke-width="2" stroke-linecap="round" stroke-linejoin="round"/>
<path d="M192.803 109.303L215.536 136.292" stroke="#263238" stroke-width="2" stroke-linecap="round" stroke-linejoin="round"/>
<path d="M505.597 108.488L472.766 137.417" stroke="#263238" stroke-width="2" stroke-linecap="round" stroke-linejoin="round"/>
<path d="M482.865 108.488L505.598 135.476" stroke="#263238" stroke-width="2" stroke-linecap="round" stroke-linejoin="round"/>
<path d="M383.797 450.697C383.797 450.697 376.983 488.931 375.947 510.937C374.911 532.942 380.136 548.642 382.231 570.647C384.326 592.652 397.93 676.97 397.93 683.783C398.311 690.149 396.463 696.448 392.705 701.599C388.515 707.354 374.889 712.624 375.947 714.675C377.005 716.725 383.267 719.923 394.27 716.262C405.273 712.602 405.802 708.92 409.992 708.92C414.181 708.92 423.089 706.296 421.501 700.1C419.914 693.904 412.152 680.74 412.682 657.677C413.718 604.25 411.094 512.149 411.094 512.149L427.852 460.818L383.797 450.697Z" fill="white" stroke="#263238" stroke-linecap="round" stroke-linejoin="round"/>
<path d="M393.278 700.74L392.705 701.599C388.515 707.354 374.889 712.624 375.947 714.675C377.005 716.725 383.268 719.923 394.27 716.262C405.273 712.602 405.802 708.92 409.992 708.92C414.181 708.92 423.089 706.296 421.501 700.1C421.016 698.116 419.892 695.448 418.613 692.008C413.584 695.841 408.244 699.248 402.649 702.195C400.158 703.121 396.453 702.085 393.278 700.74Z" fill="#263238" stroke="#263238" stroke-linecap="round" stroke-linejoin="round"/>
<path d="M430.256 224.909C430.256 224.909 427.786 216.486 426.088 208.99C424.39 201.493 437.113 198.252 451.07 196.862C465.028 195.473 484.762 205.881 490.583 222.418C496.404 238.955 491.509 300.165 492.105 313.527C492.7 326.889 494.023 363.91 480.463 366.225C466.902 368.54 452.636 369.444 440.773 346.204C428.911 322.964 441.92 261.843 443.331 249.561C444.742 237.279 430.961 226.695 430.961 226.695L430.256 224.909Z" fill="#263238" stroke="#263238" stroke-linecap="round" stroke-linejoin="round"/>
<path d="M460.066 207.534C460.066 207.534 459.14 221.558 468.489 229.033C477.838 236.508 489.966 254.257 489.966 268.281" stroke="white" stroke-width="0.5" stroke-linecap="round" stroke-linejoin="round"/>
<path d="M477.838 245.856C477.838 245.856 484.453 270.111 478.764 290.705" stroke="white" stroke-width="0.5" stroke-linecap="round" stroke-linejoin="round"/>
<path d="M405.891 457.268C405.891 457.268 394.866 507.1 405.031 550.163C407.809 561.937 450.651 667.555 454.025 684.445C457.398 701.335 457.398 716.549 464.168 722.458C470.937 728.368 475.192 725.832 471.753 706.406C469.444 695.559 465.738 685.056 460.728 675.162C460.728 675.162 448.049 594.086 446.352 576.358C444.654 558.63 434.533 537.507 434.533 537.507L450.585 468.249L405.891 457.268Z" fill="white" stroke="#263238" stroke-linecap="round" stroke-linejoin="round"/>
<path d="M469.57 697.256C468.754 701.666 466.99 705.48 463.308 704.752C461.584 704.423 459.995 703.593 458.74 702.365C457.485 701.138 456.62 699.567 456.252 697.851C457.906 709.008 459.251 718.203 464.168 722.48C470.915 728.39 475.193 725.854 471.753 706.428C471.2 703.332 470.471 700.269 469.57 697.256Z" fill="#263238" stroke="#263238" stroke-linecap="round" stroke-linejoin="round"/>
<path d="M455.723 692.846H455.524C455.549 693.24 455.608 693.631 455.701 694.014C455.689 693.625 455.696 693.235 455.723 692.846Z" fill="#263238" stroke="#263238" stroke-linecap="round" stroke-linejoin="round"/>
<path d="M421.171 286.45C415.886 287.717 411.272 290.929 408.25 295.446C403.84 302.745 362.762 333.636 358.837 336.988C354.912 340.339 355.463 357.207 365.452 357.207C375.44 357.207 409.264 331.387 409.264 331.387C409.264 331.387 419.363 319.017 422.736 307.794C426.11 296.571 428.469 287.574 421.171 286.45Z" fill="white" stroke="#263238" stroke-linecap="round" stroke-linejoin="round"/>
<path d="M432.394 257.83C428.469 257.83 424.588 267.046 424.588 267.046L420.884 267.598C424.214 263.651 428.469 257.83 428.469 257.83C431.821 252.207 430.674 243.784 428.469 244.357C426.264 244.931 411.623 250.531 409.374 253.332C407.125 256.132 400.378 278.6 398.151 280.849C395.924 283.098 358.837 330.263 354.912 340.383C350.987 350.504 361.637 362.852 370.633 356.678C379.629 350.504 387.479 331.387 390.875 318.003C394.27 304.619 408.294 279.24 408.294 279.24C408.294 279.24 411.557 276.594 414.909 273.639C418.57 272.717 422.177 271.59 425.713 270.266C427.918 269.141 434.136 261.269 434.136 261.269C434.136 261.269 436.319 257.83 432.394 257.83Z" fill="white" stroke="#263238" stroke-linecap="round" stroke-linejoin="round"/>
<path d="M422.957 239.661L411.579 257.697C410.972 258.661 410.737 259.814 410.92 260.939C411.103 262.063 411.69 263.083 412.571 263.805L417.753 268.06C418.713 268.844 419.946 269.215 421.179 269.09C422.413 268.965 423.546 268.355 424.33 267.394C424.421 267.282 424.508 267.166 424.588 267.046L436.649 249.164C437.319 248.165 437.581 246.948 437.38 245.762C437.179 244.577 436.531 243.514 435.569 242.792L429.704 238.382C429.211 238.016 428.65 237.752 428.055 237.603C427.459 237.454 426.84 237.424 426.233 237.514C425.626 237.604 425.042 237.813 424.516 238.129C423.99 238.445 423.531 238.862 423.165 239.355C423.092 239.454 423.022 239.556 422.957 239.661Z" fill="#263238" stroke="#263238" stroke-linecap="round" stroke-linejoin="round"/>
<path d="M461.918 247.863C461.918 247.863 458.633 268.92 457.707 276.969C456.78 285.017 457.023 286.758 463.792 287.53C470.562 288.302 481.741 291.742 486.129 302.105C490.516 312.468 465.027 343.845 457.464 350.614C449.901 357.383 446.527 366.512 448.203 373.656C449.879 380.8 469.657 403.908 468.797 427.347C467.938 450.785 439.604 519.117 439.604 519.117C439.604 519.117 401.833 503.815 374.558 508.93C374.558 508.93 387.435 418.395 395.086 394.537C402.737 370.679 410.52 357.758 409.903 352.643C409.286 347.527 399.76 332.6 402.076 319.987C404.391 307.375 412.527 296.328 416.32 289.471C420.112 282.613 428.248 282.701 431.203 283.032C434.158 283.363 438.347 284.289 440.442 281.092C442.537 277.895 444.411 261.401 444.411 261.401L461.918 247.863Z" fill="#6756D8" stroke="#263238" stroke-linecap="round" stroke-linejoin="round"/>
<path d="M418.04 339.281L434.842 351.43" stroke="#263238" stroke-linecap="round" stroke-linejoin="round"/>
<path d="M433.584 391.803C433.584 391.803 416.738 423.951 412.924 446.927" stroke="#263238" stroke-linecap="round" stroke-linejoin="round"/>
<path d="M413.696 424.723C413.696 424.723 409.088 444.567 406.795 462.207" stroke="#263238" stroke-linecap="round" stroke-linejoin="round"/>
<path d="M480.132 295.953C480.132 295.953 474.509 298.775 468.335 308.323C462.161 317.87 456.538 334.143 457.663 338.068C458.787 341.993 469.46 335.268 469.46 335.268C469.46 335.268 480.727 385.783 490.781 381.88C511.001 374.009 484.056 299.9 484.056 299.9C484.056 299.9 484.056 297.122 480.132 295.953Z" fill="white" stroke="#263238" stroke-linecap="round" stroke-linejoin="round"/>
<path d="M436.716 302.855C425.294 300.032 428.337 289.14 431.181 283.01H431.291C434.268 283.363 438.435 284.267 440.53 281.07C442.625 277.872 444.499 261.379 444.499 261.379L461.918 247.951C461.918 247.951 458.633 269.009 457.707 277.057C456.781 285.105 457.023 286.847 463.793 287.618C463.793 287.53 452.988 306.978 436.716 302.855Z" fill="white" stroke="#263238" stroke-linecap="round" stroke-linejoin="round"/>
<path d="M446.506 206.63C445.434 212.616 446.068 218.782 448.336 224.424C452.107 232.583 468.181 242.064 468.181 242.064C468.181 242.064 474.509 235.449 475.435 242.483C476.361 249.517 473.385 256.396 468.688 256.286C463.991 256.176 463.308 250.95 463.308 250.95C459.143 257.007 453.025 261.452 445.977 263.54C433.497 267.664 427.147 266.936 425.669 257.344C424.192 247.753 425.912 236.772 430.278 224.843C434.644 212.914 444.764 206.851 446.506 206.63Z" fill="white" stroke="#263238" stroke-linecap="round" stroke-linejoin="round"/>
<path d="M493.03 288.699L493.604 279.725C496.378 277.263 499 274.634 501.453 271.853C504.827 267.928 507.076 262.305 509.876 264.555C512.677 266.804 505.951 273.551 505.951 273.551L505.378 277.961L516.623 274.609C516.623 274.609 527.295 263.937 527.847 266.737C528.398 269.538 522.224 279.085 517.748 284.157C513.272 289.228 499.778 290.771 499.778 290.771C499.778 290.771 499.204 335.686 499.204 349.181C499.204 362.675 497.529 377.845 493.604 380.624C489.679 383.402 477.309 381.175 480.131 359.28C482.954 337.384 493.03 288.699 493.03 288.699Z" fill="white" stroke="#263238" stroke-linecap="round" stroke-linejoin="round"/>
<path d="M469.46 335.312L466.086 324.64" stroke="#263238" stroke-linecap="round" stroke-linejoin="round"/>
<path d="M162.44 202.309C162.44 202.309 172.561 215.141 173.597 217.964C174.329 220.019 174.933 222.118 175.406 224.248L182.02 229.143C182.22 229.287 182.39 229.468 182.519 229.678C182.649 229.887 182.736 230.12 182.776 230.363C182.815 230.605 182.807 230.854 182.75 231.093C182.694 231.333 182.591 231.559 182.447 231.759C182.424 231.792 182.399 231.824 182.373 231.855L177.368 238.007C177.368 238.007 182.02 253.442 181.778 255.647C181.535 257.852 165.373 263.342 165.373 263.342L163.874 275.16L133.225 274.764L133.115 252.868L120.877 224.204C120.877 224.204 131.836 203.521 162.44 202.309Z" fill="white" stroke="#263238" stroke-linecap="round" stroke-linejoin="round"/>
<path d="M157.148 245.504L161.272 245.062C161.693 246.897 162.485 248.627 163.6 250.144C164.715 251.661 166.129 252.933 167.754 253.882" fill="white"/>
<path d="M157.148 245.504L161.272 245.062C161.693 246.897 162.485 248.627 163.6 250.144C164.715 251.661 166.129 252.933 167.754 253.882" stroke="#263238" stroke-linecap="round" stroke-linejoin="round"/>
<path d="M127.382 203.036C127.382 203.036 115.806 203.587 115.872 219.617C115.938 235.647 132.167 250.487 133.049 252.846C133.931 255.205 142.618 254.103 148.726 251.832C152.142 250.719 155.085 248.49 157.083 245.504C157.083 245.504 151.24 236.993 152.431 234.479C153.621 231.965 159.883 234.369 159.883 234.369C161.27 233.581 162.52 232.576 163.588 231.392C164.646 229.915 170.313 223.542 166.388 220.191C162.463 216.839 156.355 214.811 159.067 210.577C161.78 206.344 171.481 202.22 168.637 193.114C165.793 184.007 159.442 184.294 154.15 187.271C148.858 190.247 147.403 180.656 137.106 186.102C126.809 191.548 123.92 199.508 127.382 203.036Z" fill="#263238" stroke="#263238" stroke-linecap="round" stroke-linejoin="round"/>
<path d="M140.92 234.435C140.701 236.133 140.701 237.852 140.92 239.55" stroke="white" stroke-width="0.5" stroke-linecap="round" stroke-linejoin="round"/>
<path d="M158.78 208.681C158.78 208.681 156.575 212.76 147.755 220.676C144.664 223.449 142.469 227.08 141.449 231.105" stroke="white" stroke-width="0.5" stroke-linecap="round" stroke-linejoin="round"/>
<path d="M160.853 216.773C160.853 216.773 151.879 228.944 147.16 232.56" stroke="white" stroke-width="0.5" stroke-linecap="round" stroke-linejoin="round"/>
<path d="M251.279 203.654C260.396 208.038 270.025 211.267 279.943 213.267C279.943 213.267 265.809 203.698 252.138 201.316C250.882 201.14 250.198 203.102 251.279 203.654Z" fill="#263238" stroke="#263238" stroke-linecap="round" stroke-linejoin="round"/>
<path d="M248.655 276.109L265.501 232.98C265.501 232.98 258.886 222.109 258.886 218.824C258.886 215.538 269.426 203.72 269.426 203.72C269.426 203.72 270.286 197.303 274.872 200.368C276.196 201.279 277.262 202.518 277.965 203.963C278.668 205.408 278.985 207.011 278.885 208.615C281.001 211.597 282.924 214.712 284.64 217.942C285.698 220.5 275.688 234.721 275.688 234.721C275.688 234.721 274.012 273.904 269.602 287.376C265.192 300.848 264.09 303.648 261.157 307.595C258.224 311.542 244.289 304.597 244.289 304.597L248.655 276.109Z" fill="white" stroke="#263238" stroke-linecap="round" stroke-linejoin="round"/>
<path d="M171.636 692.228L199.043 702.195C200.266 702.612 201.273 703.499 201.842 704.659C202.412 705.819 202.497 707.158 202.079 708.381C202.029 708.527 201.973 708.669 201.91 708.809C201.532 709.564 200.876 710.141 200.08 710.419C196.596 711.676 160.39 724.09 149.829 719.614C148.751 719.071 147.842 718.244 147.201 717.221C146.56 716.199 146.21 715.021 146.19 713.815C146.54 705.68 147.431 697.577 148.858 689.56C148.858 689.56 162.309 695.933 171.636 692.228Z" fill="#263238" stroke="#263238" stroke-linecap="round" stroke-linejoin="round"/>
<path d="M201.954 708.832C202.243 708.256 202.403 707.624 202.422 706.981C202.441 706.337 202.319 705.697 202.064 705.105C194.479 708.788 178.361 715.689 163.676 715.954C157.843 716.313 151.989 715.815 146.301 714.476C146.441 715.559 146.838 716.593 147.46 717.49C148.081 718.388 148.909 719.124 149.873 719.636C160.501 724.046 196.64 711.698 200.124 710.441C200.92 710.163 201.577 709.586 201.954 708.832Z" fill="white" stroke="#263238" stroke-linecap="round" stroke-linejoin="round"/>
<path d="M95.6525 683.894C95.6525 683.894 93.183 706.627 94.5059 708.876C95.8289 711.125 99.7758 712.646 106.567 712.205C108.649 712.159 110.664 711.459 112.326 710.205C113.988 708.951 115.213 707.205 115.828 705.215C116.445 703.584 114.858 688.722 114.814 686.121C114.769 683.519 95.6525 683.894 95.6525 683.894Z" fill="#263238" stroke="#263238" stroke-linecap="round" stroke-linejoin="round"/>
<path d="M115.894 700.96C113.8 704.995 111.132 707.575 104.208 707.707C100.647 707.851 97.1265 706.913 94.1093 705.017C94.0072 706.317 94.1416 707.624 94.5061 708.876C95.8511 711.081 99.776 712.646 106.567 712.205C108.649 712.159 110.664 711.459 112.326 710.205C113.988 708.95 115.213 707.205 115.828 705.215C116.021 703.805 116.043 702.376 115.894 700.96Z" fill="white" stroke="#263238" stroke-linecap="round" stroke-linejoin="round"/>
<path d="M186.298 422.319C179.862 425.503 173.076 427.923 166.078 429.529L105.288 415.484C105.288 415.484 101.253 449.573 101.363 455.438C101.473 461.303 103.568 566.854 103.568 566.854L95.2773 685.481C96.1372 687.25 97.494 688.73 99.1818 689.741C100.87 690.751 102.815 691.248 104.781 691.17C108.815 691.15 112.799 690.271 116.467 688.59L142.53 565.112L148.329 696.197C148.329 696.197 151.923 699.659 160.125 699.482C162.526 699.403 164.864 698.69 166.9 697.416C168.937 696.142 170.601 694.352 171.723 692.228C171.723 692.228 175.758 641.514 181.778 605.22C187.797 568.927 188.525 469.02 188.525 469.02L186.298 422.319Z" fill="white" stroke="#263238" stroke-linecap="round" stroke-linejoin="round"/>
<path d="M128.484 440.202C136.457 441.93 144.582 442.868 152.739 443.002" stroke="#263238" stroke-linecap="round" stroke-linejoin="round"/>
<path d="M105.949 433.653C105.949 433.653 108.772 437.401 116.246 437.401" stroke="#263238" stroke-linecap="round" stroke-linejoin="round"/>
<path d="M167.622 660.697C167.622 660.697 173.223 593.424 176.971 544.849C179.233 516.239 179.542 487.508 177.897 458.855C177.897 458.855 187.246 448.58 180.697 430.83" stroke="#263238" stroke-linecap="round" stroke-linejoin="round"/>
<path d="M167.623 668.172L164.822 689.67" stroke="#263238" stroke-linecap="round" stroke-linejoin="round"/>
<path d="M142.464 565.134L135.805 477.068L120.26 462.119" stroke="#263238" stroke-linecap="round" stroke-linejoin="round"/>
<path d="M109.896 373.987C110.218 372.984 110.205 371.904 109.859 370.91C109.513 369.915 108.853 369.06 107.978 368.474C101.231 363.91 84.8701 354.517 79.6444 366.887C78.1171 371.713 77.0539 376.675 76.4693 381.704C75.014 391.604 75.5432 458.635 75.6094 465.492C75.6103 465.864 75.5659 466.234 75.4771 466.595C74.9038 469.219 72.5003 480.685 74.1761 487.52C76.0504 495.303 79.6444 501.301 85.7521 502.954C91.8599 504.608 95.1894 497.552 94.2413 493.231C93.2931 488.909 95.5642 485.557 94.6161 481.236C93.8443 477.752 90.5369 468.645 89.2801 465.272C88.9766 464.439 88.9005 463.541 89.0596 462.67C90.7794 453.85 100.415 404.393 101.143 402.011C101.87 399.63 107.515 381.682 109.896 373.987Z" fill="white" stroke="#263238" stroke-linecap="round" stroke-linejoin="round"/>
<path d="M83.9219 488.997C83.9219 488.997 91.7054 494.443 92.6094 499.471" stroke="#263238" stroke-linecap="round" stroke-linejoin="round"/>
<path d="M86.3916 484.477C86.3916 484.477 92.5655 488.512 94.2192 491.687" stroke="#263238" stroke-linecap="round" stroke-linejoin="round"/>
<path d="M87.5166 479.913L89.7216 482.956C89.7216 482.956 90.8241 495.083 94.2638 493.275C97.7036 491.467 95.675 476.76 95.675 476.76C95.675 476.76 93.9331 473.166 88.553 464.588" fill="white"/>
<path d="M87.5166 479.913L89.7216 482.956C89.7216 482.956 90.8241 495.083 94.2638 493.275C97.7036 491.467 95.675 476.76 95.675 476.76C95.675 476.76 93.9331 473.166 88.553 464.588" stroke="#263238" stroke-linecap="round" stroke-linejoin="round"/>
<path d="M87.1189 467.234C88.3079 471.58 88.2006 476.178 86.8102 480.464C84.8248 484.195 82.6158 487.803 80.1953 491.268C83.4282 494.36 86.4555 497.66 89.2577 501.147" stroke="#263238" stroke-linecap="round" stroke-linejoin="round"/>
<path d="M91 294.432L71.001 367.923C71.001 367.923 87.7366 381.483 108.485 381.153L121.869 311.388C121.869 311.388 106.92 277.806 91 294.432Z" fill="#263238" stroke="#263238" stroke-linecap="round" stroke-linejoin="round"/>
<path d="M124.075 270.331C124.075 270.331 94.7045 284.928 91.9483 291.543C89.7433 297.055 96.4905 336.083 96.6228 342.941C96.7551 349.798 102.62 408.715 104.208 420.114C105.795 431.514 143.897 436.365 158.406 431.977C172.914 427.589 186.387 425.913 186.298 422.253C186.21 418.593 184.27 387.591 185.064 381.66C185.857 375.728 192.009 331.232 192.009 331.232L247.376 319.767C247.376 319.767 249.934 318.223 250 308.213C250.008 298.764 249.523 289.321 248.544 279.923C241.373 281.643 233.957 282.106 226.627 281.29C213.265 280.099 197.434 276.505 194.611 277.299C191.789 278.093 172.562 274.08 166.233 273.286C157.436 272.095 135.099 264.643 124.075 270.331Z" fill="#263238" stroke="#263238" stroke-linecap="round" stroke-linejoin="round"/>
<path d="M99.4229 377.603L91.7275 313.063" stroke="white" stroke-width="0.5" stroke-linecap="round" stroke-linejoin="round"/>
<path d="M93.8227 341.155L90.0742 332.754" stroke="white" stroke-width="0.5" stroke-linecap="round" stroke-linejoin="round"/>
<path d="M192.009 331.122L170.423 334.606" stroke="white" stroke-width="0.5" stroke-linecap="round" stroke-linejoin="round"/>
<path d="M187.247 332.754L171.371 347.703" stroke="white" stroke-width="0.5" stroke-linecap="round" stroke-linejoin="round"/>
<path d="M235.822 283.23C235.822 283.23 220.872 305.655 184.446 314.1" stroke="white" stroke-width="0.5" stroke-linecap="round" stroke-linejoin="round"/>
</svg>
