<svg width="928" height="692" viewBox="0 0 928 692" fill="none" xmlns="http://www.w3.org/2000/svg">
<path d="M927.036 607.76H0.332031V608.223H927.036V607.76Z" fill="#EBEBEB"/>
<path d="M834.18 637.581H772.795V638.045H834.18V637.581Z" fill="#EBEBEB"/>
<path d="M614.217 642.623H598.111V643.086H614.217V642.623Z" fill="#EBEBEB"/>
<path d="M770.942 620.382H735.375V620.845H770.942V620.382Z" fill="#EBEBEB"/>
<path d="M177.61 623.495H97.5615V623.959H177.61V623.495Z" fill="#EBEBEB"/>
<path d="M205.856 623.495H194.124V623.959H205.856V623.495Z" fill="#EBEBEB"/>
<path d="M417.626 631.317H243.999V631.78H417.626V631.317Z" fill="#EBEBEB"/>
<path d="M439.589 525.098H81.7148C78.9113 525.093 76.2242 523.976 74.2435 521.992C72.2628 520.008 71.1504 517.319 71.1504 514.515V11.4446C71.1748 8.65713 72.298 5.99188 74.2761 4.02771C76.2541 2.06354 78.9272 0.95913 81.7148 0.954346H439.589C442.396 0.954346 445.088 2.0693 447.073 4.05399C449.057 6.03867 450.172 8.73049 450.172 11.5373V514.515C450.172 517.322 449.057 520.014 447.073 521.998C445.088 523.983 442.396 525.098 439.589 525.098ZM81.7148 1.32501C79.0341 1.32992 76.4649 2.39827 74.5712 4.29553C72.6774 6.1928 71.6137 8.76393 71.6138 11.4446V514.515C71.6138 517.196 72.6774 519.767 74.5712 521.664C76.465 523.561 79.0342 524.63 81.7148 524.635H439.589C442.272 524.63 444.843 523.562 446.74 521.665C448.636 519.769 449.704 517.197 449.709 514.515V11.4446C449.704 8.76223 448.636 6.19111 446.74 4.29437C444.843 2.39764 442.272 1.32991 439.589 1.32501H81.7148Z" fill="#EBEBEB"/>
<path d="M840.5 525.098H482.607C479.802 525.093 477.113 523.977 475.13 521.993C473.146 520.009 472.029 517.32 472.024 514.515V11.4446C472.054 8.65543 473.181 5.99018 475.162 4.02652C477.143 2.06286 479.818 0.959057 482.607 0.954346H840.5C843.285 0.964003 845.953 2.07057 847.927 4.03421C849.901 5.99785 851.022 8.66034 851.046 11.4446V514.515C851.046 517.315 849.936 520.002 847.96 521.985C845.983 523.969 843.301 525.088 840.5 525.098ZM482.607 1.32501C479.925 1.32992 477.354 2.39767 475.457 4.2944C473.56 6.19114 472.493 8.76223 472.488 11.4446V514.515C472.493 517.197 473.56 519.769 475.457 521.665C477.354 523.562 479.925 524.63 482.607 524.635H840.5C843.183 524.63 845.754 523.562 847.651 521.665C849.547 519.769 850.615 517.197 850.62 514.515V11.4446C850.615 8.76223 849.547 6.19114 847.651 4.2944C845.754 2.39767 843.183 1.32991 840.5 1.32501H482.607Z" fill="#EBEBEB"/>
<path d="M541.249 55.8523H372.774V265.917H541.249V55.8523Z" fill="#F5F5F5"/>
<path d="M403.633 83.2641C424.855 68.0662 424.91 59.7258 440.108 76.7587C455.306 93.7915 465.889 114.401 493.468 103.652C521.047 92.902 536.411 120.722 518.748 146.28C501.085 171.839 507.628 206.868 518.748 223.604C529.869 240.34 524.716 262.896 506.887 250.275C489.057 237.653 464.925 237.672 447.67 246.568C430.415 255.464 410.231 277.464 411.77 239.006C413.308 200.548 393.532 212.595 388.435 193.153C383.338 173.71 407.933 186.036 403.633 143.444C399.333 100.853 384.821 96.7569 403.633 83.2641Z" fill="#E0E0E0"/>
<path d="M507.424 76.7586C481.625 65.3231 470.69 59.6887 458.606 85.1731C446.522 110.657 422.168 144.575 404.597 135.215C387.027 125.855 392.346 168.576 426.097 157.864C459.847 147.151 467.984 152.563 479.846 178.251C491.708 203.939 488.909 218.285 503.236 208.907C517.563 199.528 497.787 170.652 505.905 147.336C514.023 124.02 530.592 87.0265 507.424 76.7586Z" fill="#EBEBEB"/>
<path d="M417.016 206.849C427.413 186.888 413.309 154.954 440.517 168.373C467.725 181.791 456.326 233.242 479.716 221.046C503.106 208.851 487.26 173.655 507.221 171.931C527.182 170.207 525.014 248.718 495.897 250.312C466.78 251.906 441.647 226.051 432.881 234.984C424.114 243.917 399.649 264.342 394.571 239.043C389.492 213.744 409.009 222.158 417.016 206.849Z" fill="#EBEBEB"/>
<path d="M750.239 51.0706H586.509V270.681H750.239V51.0706Z" fill="#F5F5F5"/>
<path d="M609.64 73.1259C614.366 64.3408 731.52 108.507 728.369 118.053C725.218 127.598 636.829 135.512 629.045 148.43C621.261 161.348 722.661 178.566 720.826 187.351C718.991 196.137 623.077 188.315 621.224 197.045C619.37 205.774 722.309 220.935 715.451 234.113C708.593 247.291 623.133 237.82 613.736 215.579C604.339 193.338 656.068 194.858 657.55 180.123C659.033 165.389 602.412 162.516 609.603 138.848C616.794 115.18 691.153 132.25 684.221 111.603C677.289 90.9557 600.669 89.751 609.64 73.1259Z" fill="#E6E6E6"/>
<path d="M699.252 74.3123C714.543 70.7167 732.206 98.0544 714.079 91.9382C695.953 85.8219 683.961 77.8893 699.252 74.3123Z" fill="#EBEBEB"/>
<path d="M630.25 108.878C631.01 101.261 608.454 102.614 608.194 108.878C607.935 115.143 629.453 116.829 630.25 108.878Z" fill="#EBEBEB"/>
<path d="M715.488 154.787C707.221 141.164 682.923 147.058 683.183 153.341C683.442 159.624 724.403 169.448 715.488 154.787Z" fill="#EBEBEB"/>
<path d="M329.886 51.0706H166.156V270.681H329.886V51.0706Z" fill="#F5F5F5"/>
<path d="M196.626 211.409C196.626 211.409 181.169 91.7712 190.714 77.4444C200.259 63.1175 219.868 114.865 223.389 102.743C226.911 90.6221 229.135 64.8227 241.794 67.0653C254.452 69.3079 250.004 91.5673 259.79 92.4384C269.576 93.3096 281.531 63.9701 285.756 67.0653C289.982 70.1605 286.442 90.6963 294.43 92.4384C302.419 94.1806 300.232 72.5143 310.648 79.3534C321.064 86.1925 304.606 211.409 304.606 211.409C304.606 211.409 310.852 112.844 299.972 112.844C289.092 112.844 284.663 143.444 277.546 129.025C270.429 114.605 278.287 104.208 273.487 102.743C268.686 101.279 258.66 127.097 251.246 123.52C243.832 119.943 246.927 105.097 241.812 102.743C236.697 100.39 256.139 137.958 227.763 129.34C199.388 120.721 203.966 97.35 199.962 105.987C195.959 114.624 196.626 211.409 196.626 211.409Z" fill="#EBEBEB"/>
<path d="M280.604 178.733C269.484 164.054 262.478 192.485 249.875 201.845C237.272 211.205 241.757 167.298 225.503 177.584C209.248 187.87 220.832 214.448 210.064 222.474C199.295 230.499 201.093 259.282 213.177 244.566C225.262 229.85 225.039 191.003 234.139 215.764C243.239 240.526 247.224 264.676 255.231 243.269C263.238 221.862 256.195 189.186 268.038 207.85C279.881 226.514 280.159 251.702 292.021 241.434C303.883 231.166 284.941 224.586 285.405 213.225C285.868 201.864 285.293 184.942 280.604 178.733Z" fill="#EBEBEB"/>
<path d="M763.121 545.096C763.399 543.243 769.886 498.446 756.893 482.989C755.6 481.36 753.962 480.038 752.097 479.118C750.232 478.198 748.186 477.703 746.106 477.669C719.881 477.058 716.285 498.057 716.248 498.335L719.343 498.817C719.473 498.057 722.587 480.283 746.032 480.801C747.668 480.828 749.278 481.22 750.743 481.947C752.208 482.675 753.493 483.721 754.502 485.009C766.605 499.391 760.063 544.188 760.063 544.633L763.121 545.096Z" fill="#EBEBEB"/>
<path d="M764.715 543.057L767.828 542.946C767.828 542.538 766.79 501.726 786.918 493.275C806.62 485.027 815.498 502.004 815.869 502.727L818.667 501.319C818.556 501.115 808.158 480.931 785.695 490.402C763.602 499.669 764.659 541.278 764.715 543.057Z" fill="#EBEBEB"/>
<path d="M764.622 546.264C764.622 545.615 764.807 481.042 777.391 462.156C789.476 444.03 808.899 452.556 809.808 452.889L811.105 450.054C810.864 449.942 788.364 440.008 774.797 460.377C761.675 480.042 761.489 543.521 761.489 546.227L764.622 546.264Z" fill="#EBEBEB"/>
<path d="M742.343 479.226C742.343 479.226 753.797 483.452 750.406 493.423C747.014 503.395 710.78 519.797 710.78 519.797C710.78 519.797 695.619 505.878 709.538 483.285C723.457 460.692 742.047 472.091 742.343 479.226Z" fill="#E0E0E0"/>
<path d="M777.966 458.746C777.966 458.746 769.83 457.875 770.553 452.926C771.276 447.978 802.172 435.226 820.428 455.836C820.428 455.836 808.733 475.927 791.83 476.224C774.927 476.52 777.966 458.746 777.966 458.746Z" fill="#E0E0E0"/>
<path d="M786.306 491.848C786.306 491.848 780.746 487.307 786.751 485.101C792.756 482.896 822.522 483.507 822.837 512.903C822.837 512.903 788.215 518.648 783.915 507.435C779.616 496.222 786.306 491.848 786.306 491.848Z" fill="#E0E0E0"/>
<path d="M736.19 605.054H789.902L795.703 546.264H730.407L736.19 605.054Z" fill="#EBEBEB"/>
<path d="M798.576 539.758H727.554V552.732H798.576V539.758Z" fill="#E0E0E0"/>
<path d="M172.94 551.824C172.94 551.824 183.412 528.972 171.457 506.453C159.503 483.934 156.018 478.652 163.654 474.018C171.29 469.385 174.775 492.033 174.775 492.033C174.775 492.033 181.206 476.465 175.887 460.173C170.568 443.882 167.25 417.341 174.515 414.487C181.781 411.632 175.887 447.588 182.188 459.858C185.392 451.248 187.46 442.258 188.342 433.113C189.194 420.028 187.841 399.14 193.568 393.784C199.295 388.428 202.965 392.135 197.275 421.011C193.906 438.269 192.045 455.788 191.715 473.369C191.715 473.369 204.133 435.486 212.473 434.448C220.813 433.41 220.813 445.568 213.659 456.244C206.505 466.92 192.771 485.898 190.51 495.759C190.51 495.759 204.151 467.253 216.458 476.001C228.765 484.749 205.764 501.949 195.552 508.176C185.339 514.404 178.259 553.27 178.259 553.27L172.94 551.824Z" fill="#E0E0E0"/>
<path d="M181.206 561.184C181.206 561.184 171.012 538.183 183.244 515.849C195.477 493.516 199.017 488.252 191.436 483.526C183.856 478.8 180.112 501.374 180.112 501.374C180.112 501.374 173.885 485.713 179.389 469.496C184.894 453.278 188.527 426.867 181.243 423.846C173.959 420.825 179.389 456.93 173.032 469.088C169.933 460.439 167.97 451.424 167.194 442.269C166.49 429.166 168.084 408.296 162.431 402.847C156.778 397.398 153.164 400.994 158.335 430.018C161.554 447.314 163.259 464.859 163.431 482.451C163.431 482.451 151.384 444.401 143.044 443.159C134.704 441.917 134.574 454.279 141.58 464.955C148.586 475.631 162.134 494.962 164.266 504.803C164.266 504.803 150.977 476.094 138.614 484.638C126.252 493.182 148.975 510.753 159.132 517.128C169.288 523.504 175.812 562.611 175.812 562.611L181.206 561.184Z" fill="#EBEBEB"/>
<path d="M134.186 544.781H218.423L211.603 605.054H141.006L134.186 544.781Z" fill="#EBEBEB"/>
<path d="M463.683 691.46C662.151 691.46 823.041 682.066 823.041 670.479C823.041 658.892 662.151 649.499 463.683 649.499C265.216 649.499 104.326 658.892 104.326 670.479C104.326 682.066 265.216 691.46 463.683 691.46Z" fill="#F5F5F5"/>
<path d="M446.836 639.601C446.844 642.277 446.208 644.915 444.982 647.293C443.952 649.376 442.318 651.101 440.293 652.242C440.293 652.242 433.343 656.412 432.398 656.82C431.114 657.366 429.734 657.649 428.339 657.654C420.777 657.654 414.66 649.665 414.66 639.805C414.604 635.514 415.865 631.309 418.275 627.758L413.845 603.312L402.521 539.944L378.056 404.126H396.293L420.703 539.944L432.175 603.312L435.882 624.644L439.7 626.683C443.87 628.518 446.836 633.596 446.836 639.601Z" fill="#263238"/>
<path opacity="0.4" d="M446.836 639.601C446.844 642.277 446.208 644.915 444.982 647.293C443.952 649.376 442.318 651.101 440.293 652.242C440.293 652.242 433.343 656.412 432.398 656.82C431.114 657.366 429.734 657.649 428.339 657.654C420.777 657.654 414.66 649.665 414.66 639.805C414.604 635.514 415.865 631.309 418.275 627.758L413.845 603.312L402.521 539.944L378.056 404.126H396.293L420.703 539.944L432.175 603.312L435.882 624.644L439.7 626.683C443.87 628.518 446.836 633.596 446.836 639.601Z" fill="white"/>
<path opacity="0.2" d="M446.836 639.601C446.836 647.145 442.147 653.28 436.364 653.28C430.582 653.28 425.874 647.145 425.874 639.601C425.874 632.058 430.563 625.923 436.364 625.923C442.165 625.923 446.836 632.039 446.836 639.601Z" fill="white"/>
<path opacity="0.2" d="M432.083 603.312H413.845L402.466 539.944L378.056 404.126H396.294L420.703 539.944L432.083 603.312Z" fill="black"/>
<path d="M762.786 445.401H681.106V468.754H762.786V445.401Z" fill="#263238"/>
<path d="M755.632 517.239L781.395 388.094C781.523 387.447 781.507 386.779 781.347 386.139C781.187 385.499 780.887 384.902 780.469 384.392C780.05 383.881 779.524 383.47 778.928 383.187C778.332 382.904 777.681 382.757 777.021 382.756H769.181C767.651 382.756 766.169 383.287 764.987 384.256C763.804 385.226 762.994 386.576 762.694 388.075L736.913 517.221C736.784 517.868 736.801 518.536 736.961 519.176C737.121 519.816 737.421 520.413 737.839 520.923C738.257 521.433 738.783 521.845 739.379 522.128C739.976 522.41 740.627 522.558 741.287 522.559H749.108C750.644 522.567 752.135 522.041 753.325 521.07C754.516 520.1 755.331 518.745 755.632 517.239Z" fill="#263238"/>
<path d="M776.26 439.582H760.432C755.669 439.582 751.833 446.995 751.833 456.262C751.833 465.529 755.669 472.943 760.432 472.943H776.26C781.005 472.943 784.86 465.529 784.86 456.262C784.86 446.995 781.005 439.582 776.26 439.582Z" fill="#263238"/>
<path opacity="0.2" d="M783.804 456.299C783.804 463.175 781.079 468.736 777.706 468.736C774.333 468.736 771.59 463.175 771.59 456.299C771.59 449.423 774.333 443.844 777.706 443.844C781.079 443.844 783.804 449.479 783.804 456.299Z" fill="white"/>
<path opacity="0.2" d="M755.632 517.239L781.395 388.094C781.523 387.447 781.507 386.779 781.347 386.139C781.187 385.499 780.887 384.902 780.469 384.392C780.05 383.881 779.524 383.47 778.928 383.187C778.332 382.904 777.681 382.757 777.021 382.756H769.181C767.651 382.756 766.169 383.287 764.987 384.256C763.804 385.226 762.994 386.576 762.694 388.075L736.913 517.221C736.784 517.868 736.801 518.536 736.961 519.176C737.121 519.816 737.421 520.413 737.839 520.923C738.257 521.433 738.783 521.845 739.379 522.128C739.976 522.41 740.627 522.558 741.287 522.559H749.108C750.644 522.567 752.135 522.041 753.325 521.07C754.516 520.1 755.331 518.745 755.632 517.239Z" fill="white"/>
<path d="M754.502 623.922V665.141H335.224V653.669H422.519L435.882 623.922H754.502Z" fill="#263238"/>
<path opacity="0.2" d="M754.502 623.922V665.141H594.701V653.669H681.996L695.36 623.922H754.502Z" fill="white"/>
<path d="M743.381 639.601C743.389 642.277 742.753 644.915 741.528 647.293C740.497 649.376 738.863 651.101 736.839 652.242C736.839 652.242 729.888 656.412 728.943 656.82C727.659 657.366 726.279 657.649 724.884 657.654C717.322 657.654 711.206 649.665 711.206 639.805C711.176 635.504 712.47 631.298 714.913 627.758L710.39 603.312L699.066 539.944L674.601 404.126H692.839L717.248 539.944L728.721 603.312L732.427 624.644L736.245 626.683C740.416 628.518 743.381 633.596 743.381 639.601Z" fill="#263238"/>
<path opacity="0.4" d="M743.381 639.601C743.389 642.277 742.753 644.915 741.528 647.293C740.497 649.376 738.863 651.101 736.839 652.242C736.839 652.242 729.888 656.412 728.943 656.82C727.659 657.366 726.279 657.649 724.884 657.654C717.322 657.654 711.206 649.665 711.206 639.805C711.176 635.504 712.47 631.298 714.913 627.758L710.39 603.312L699.066 539.944L674.601 404.126H692.839L717.248 539.944L728.721 603.312L732.427 624.644L736.245 626.683C740.416 628.518 743.381 633.596 743.381 639.601Z" fill="white"/>
<path opacity="0.2" d="M743.381 639.601C743.381 647.145 738.692 653.28 732.909 653.28C727.127 653.28 722.419 647.145 722.419 639.601C722.419 632.058 727.108 625.923 732.909 625.923C738.71 625.923 743.381 632.039 743.381 639.601Z" fill="white"/>
<path opacity="0.2" d="M728.628 603.312H710.391L699.011 539.944L674.601 404.126H692.839L717.248 539.944L728.628 603.312Z" fill="black"/>
<path d="M698.566 592.339H310.889C302.678 592.339 297.359 585.575 299.027 577.253L351.663 313.55C352.569 309.417 354.812 305.699 358.046 302.971C361.28 300.244 365.323 298.659 369.549 298.463H757.226C765.437 298.463 770.756 305.228 769.106 313.55L716.47 577.253C715.561 581.387 713.314 585.106 710.077 587.833C706.84 590.561 702.794 592.145 698.566 592.339Z" fill="#263238"/>
<path opacity="0.1" d="M698.566 592.339H310.889C302.678 592.339 297.359 585.575 299.027 577.253L351.663 313.55C352.569 309.417 354.812 305.699 358.046 302.971C361.28 300.244 365.323 298.659 369.549 298.463H757.226C765.437 298.463 770.756 305.228 769.106 313.55L716.47 577.253C715.561 581.387 713.314 585.106 710.077 587.833C706.84 590.561 702.794 592.145 698.566 592.339Z" fill="white"/>
<path d="M678.772 548.951H348.012L393.106 323.058H723.846L678.772 548.951Z" fill="#6756D8"/>
<path opacity="0.2" d="M721.993 480.69H707.333C706.552 480.715 705.777 480.556 705.069 480.227C704.362 479.898 703.741 479.407 703.258 478.793C702.775 478.18 702.442 477.462 702.287 476.697C702.132 475.932 702.159 475.142 702.365 474.389L713.894 416.414C714.271 414.696 715.199 413.149 716.538 412.008C717.876 410.867 719.551 410.195 721.307 410.094H736.135C736.917 410.069 737.695 410.228 738.405 410.559C739.114 410.889 739.737 411.382 740.222 411.996C740.707 412.611 741.041 413.331 741.197 414.098C741.353 414.866 741.327 415.659 741.12 416.414L729.536 474.389C729.155 476.127 728.208 477.689 726.842 478.829C725.477 479.97 723.771 480.625 721.993 480.69Z" fill="white"/>
<path opacity="0.2" d="M735.69 427.368C735.06 430.251 733.496 432.846 731.241 434.75C728.985 436.653 726.164 437.759 723.216 437.895C721.915 437.932 720.622 437.664 719.443 437.112C718.264 436.56 717.23 435.739 716.425 434.716C715.62 433.693 715.065 432.495 714.806 431.219C714.546 429.943 714.589 428.624 714.931 427.368C715.565 424.488 717.13 421.897 719.385 419.997C721.64 418.097 724.459 416.994 727.405 416.859C728.706 416.819 729.998 417.084 731.177 417.634C732.357 418.184 733.391 419.003 734.197 420.025C735.002 421.047 735.557 422.243 735.816 423.519C736.076 424.794 736.032 426.112 735.69 427.368H735.69Z" fill="black"/>
<path opacity="0.2" d="M720.473 473.073H711.91C711.619 473.084 711.328 473.025 711.063 472.903C710.798 472.78 710.566 472.597 710.385 472.367C710.204 472.138 710.08 471.869 710.023 471.582C709.966 471.296 709.978 471 710.057 470.719L715.895 441.491C716.034 440.846 716.381 440.266 716.884 439.84C717.387 439.415 718.017 439.167 718.675 439.137H727.238C727.53 439.126 727.82 439.184 728.085 439.307C728.35 439.43 728.583 439.613 728.763 439.842C728.944 440.072 729.068 440.341 729.125 440.627C729.182 440.914 729.17 441.21 729.091 441.491L723.253 470.719C723.115 471.363 722.767 471.943 722.264 472.369C721.761 472.795 721.131 473.042 720.473 473.073Z" fill="black"/>
<path d="M400.204 425.867C400.204 425.867 428.913 388.354 446.836 379.902C464.758 371.451 461.83 419.139 473.562 431.594C485.294 444.049 510.964 392.023 528.553 387.612C546.141 383.201 535.429 452.37 551.053 468.736C566.677 485.101 676.973 371.469 676.973 371.469L670.931 385.407L686.37 369.282L670.931 392.023L681.107 382.756C681.107 382.756 629.878 442.677 583.969 473.073C538.061 503.469 530.758 471.219 530.758 459.877C530.758 448.534 531.018 411.336 523.548 410.094C516.079 408.852 486.758 452.222 472.821 455.836C458.883 459.45 454.49 439.155 454.49 439.155C454.49 439.155 460.051 446.032 468.261 445.42C468.261 445.42 458.901 445.809 455.287 425.885C451.673 405.961 449.412 390.559 441.35 396.416C433.287 402.273 409.1 431.631 409.1 431.631L412.511 421.289L391.4 445.401L409.008 421.307L400.204 425.867Z" fill="white"/>
<path d="M377.852 539.202H360.263L363.581 522.596H381.17L377.852 539.202Z" fill="white"/>
<path opacity="0.8" d="M398.591 539.202H380.984L384.301 522.596H401.89L398.591 539.202Z" fill="white"/>
<path opacity="0.6" d="M419.295 539.202H401.706L405.023 522.596H422.612L419.295 539.202Z" fill="white"/>
<path opacity="0.4" d="M440.016 539.202H422.427L425.744 522.596H443.333L440.016 539.202Z" fill="white"/>
<path opacity="0.2" d="M460.736 539.202H443.147L446.464 522.596H464.053L460.736 539.202Z" fill="white"/>
<path d="M562.722 215.66L452.783 244.687L461.129 276.297L571.068 247.27L562.722 215.66Z" fill="#6756D8"/>
<path opacity="0.6" d="M562.722 215.66L452.783 244.687L461.129 276.297L571.068 247.27L562.722 215.66Z" fill="white"/>
<path d="M477.468 241.353L459.526 246.163L466.099 270.685L484.041 265.875L477.468 241.353Z" fill="#263238"/>
<path opacity="0.8" d="M493.613 237.446L475.729 242.168L482.182 266.611L500.066 261.889L493.613 237.446Z" fill="#263238"/>
<path opacity="0.6" d="M516.058 230.96L498.116 235.769L504.689 260.291L522.631 255.482L516.058 230.96Z" fill="#263238"/>
<path opacity="0.4" d="M532.108 227.266L514.224 231.988L520.677 256.431L538.561 251.709L532.108 227.266Z" fill="#263238"/>
<path opacity="0.2" d="M554.649 220.584L536.707 225.393L543.28 249.915L561.222 245.106L554.649 220.584Z" fill="#263238"/>
<path d="M571.218 214.226H457.512V246.92H571.218V214.226Z" fill="#6756D8"/>
<path opacity="0.7" d="M571.218 214.226H457.512V246.92H571.218V214.226Z" fill="white"/>
<path d="M478.919 217.617H460.422V242.898H478.919V217.617Z" fill="#6756D8"/>
<path opacity="0.8" d="M498.843 217.617H480.346V242.898H498.843V217.617Z" fill="#6756D8"/>
<path opacity="0.6" d="M518.749 217.617H500.251V242.898H518.749V217.617Z" fill="#6756D8"/>
<path opacity="0.4" d="M538.673 217.617H520.176V242.898H538.673V217.617Z" fill="#6756D8"/>
<path opacity="0.2" d="M558.597 217.617H540.1V242.898H558.597V217.617Z" fill="#6756D8"/>
<path d="M566.622 244.918C567.737 244.918 568.642 244.014 568.642 242.898C568.642 241.782 567.737 240.878 566.622 240.878C565.506 240.878 564.602 241.782 564.602 242.898C564.602 244.014 565.506 244.918 566.622 244.918Z" fill="#263238"/>
<path d="M574.221 251.887C574.224 252.262 574.153 252.634 574.012 252.981C573.872 253.328 573.664 253.645 573.401 253.912C573.138 254.179 572.825 254.392 572.48 254.538C572.135 254.684 571.764 254.761 571.389 254.764C571.332 254.764 571.275 254.763 571.219 254.76C568.068 254.76 566.01 251.553 564.88 248.922L566.733 248.44C567.716 250.627 569.235 252.851 571.2 252.851C571.812 252.851 572.238 252.666 572.293 251.739C572.25 250.168 571.754 248.643 570.866 247.346C570.404 246.496 569.775 245.748 569.017 245.146C568.259 244.544 567.388 244.101 566.455 243.843C566.23 243.78 566.037 243.636 565.912 243.439C565.787 243.242 565.74 243.005 565.779 242.775C565.818 242.545 565.941 242.337 566.124 242.192C566.307 242.047 566.537 241.975 566.77 241.99C567.996 242.224 569.14 242.773 570.088 243.584C571.325 244.597 572.333 245.861 573.045 247.292C573.758 248.723 574.158 250.29 574.221 251.887Z" fill="#263238"/>
<g opacity="0.2">
<path opacity="0.2" d="M574.221 251.887C574.224 252.262 574.153 252.634 574.012 252.981C573.872 253.328 573.664 253.645 573.401 253.912C573.138 254.179 572.825 254.392 572.48 254.538C572.135 254.684 571.764 254.761 571.389 254.764C571.332 254.764 571.275 254.763 571.219 254.76C568.068 254.76 566.01 251.553 564.88 248.922L566.733 248.44C567.716 250.627 569.235 252.851 571.2 252.851C571.812 252.851 572.238 252.666 572.293 251.739C572.25 250.168 571.754 248.643 570.866 247.346C570.404 246.496 569.775 245.748 569.017 245.146C568.259 244.544 567.388 244.101 566.455 243.843C566.23 243.78 566.037 243.636 565.912 243.439C565.787 243.242 565.74 243.005 565.779 242.775C565.818 242.545 565.941 242.337 566.124 242.192C566.307 242.047 566.537 241.975 566.77 241.99C567.996 242.224 569.14 242.773 570.088 243.584C571.325 244.597 572.333 245.861 573.045 247.292C573.758 248.723 574.158 250.29 574.221 251.887Z" fill="white"/>
</g>
<path d="M679.661 249.589C688.15 268.327 693.895 290.957 686.37 298.463C678.846 305.969 652.879 278.632 652.879 278.632L658.718 274.684C658.718 274.684 676.955 284.285 677.9 283.636C678.846 282.987 670.932 255.946 670.932 255.946L679.661 249.589Z" fill="#EBB376"/>
<path d="M554.279 254.13C552.94 253.049 551.666 251.891 550.46 250.664C548.867 248.996 531.834 249.162 531.055 250.997C530.277 252.832 533.539 261.21 536.375 262.118C539.21 263.026 551.202 261.729 553.204 260.524C555.205 259.319 554.279 254.13 554.279 254.13Z" fill="#EBB376"/>
<path d="M627.34 629.074L617.517 629.259C607.453 582.034 600.354 523.615 595.924 479.485C595.239 472.572 594.59 466.03 594.071 459.913C593.811 457.022 593.552 454.223 593.311 451.555C592.125 438.284 591.309 427.775 590.828 421.288C590.475 416.544 590.29 413.875 590.29 413.875H626.042L625.709 422.975L624.597 453.056L624.485 456.485L623.744 476.335L622.484 510.141C634.661 557.755 627.34 629.074 627.34 629.074Z" fill="white" stroke="#263238" stroke-linecap="round" stroke-linejoin="round"/>
<path d="M707.537 626.535L697.806 628.388C678.309 579.662 659.997 517.184 648.079 473.647C646.226 466.901 644.539 460.673 643.02 454.854C642.992 454.559 642.917 454.272 642.797 454.001C639.795 442.621 637.497 433.614 636.051 427.794L634.327 420.825L669.542 414.746L671.525 429.573L674.509 451.332L675.084 455.595L677.085 470.422L682.386 510.196C702.625 555.012 707.537 626.535 707.537 626.535Z" fill="white" stroke="#263238" stroke-linecap="round" stroke-linejoin="round"/>
<path opacity="0.2" d="M674.509 451.332L643.001 454.854C642.973 454.559 642.898 454.272 642.779 454.001C639.776 442.621 637.478 433.614 636.032 427.794L671.544 429.555L674.509 451.332Z" fill="black"/>
<path opacity="0.2" d="M625.616 422.994L624.504 453.074L624.393 456.503L593.978 459.877C593.719 456.985 593.459 454.187 593.218 451.518C592.032 438.247 591.217 427.738 590.735 421.251L625.616 422.994Z" fill="black"/>
<path d="M598.111 661.898C599.958 660.415 602.054 659.273 604.302 658.525C604.302 658.525 611.048 651.852 614.292 631.724L623.114 629.426C624.609 629.065 626.178 629.172 627.61 629.732C629.042 630.293 630.268 631.279 631.121 632.558C631.378 632.912 631.572 633.307 631.695 633.726C632.14 635.88 632.455 638.059 632.641 640.25C633.12 647.605 633.157 654.983 632.752 662.343H631.158L630.528 648.479C630.305 643.772 626.691 649.295 625.653 654.373C624.615 659.451 622.447 664.826 612.123 665.086C600.076 665.327 595.072 664.845 598.111 661.898Z" fill="#6756D8"/>
<path d="M631.436 632.725C632.01 628.017 632.195 619.751 632.195 619.751L612.605 621.938C612.605 621.938 614.977 631.205 613.013 638.23C622.891 635.709 631.436 632.725 631.436 632.725Z" fill="#6756D8"/>
<path d="M677.845 661.898C679.689 660.411 681.786 659.268 684.035 658.525C684.035 658.525 690.782 651.852 694.025 631.724L702.829 629.426C704.326 629.064 705.899 629.17 707.334 629.73C708.769 630.29 709.998 631.278 710.854 632.558C711.106 632.912 711.295 633.307 711.41 633.726C711.873 635.877 712.189 638.057 712.355 640.25C713.245 647.071 712.485 662.343 712.485 662.343H710.891L710.261 648.479C710.02 643.772 706.425 649.295 705.387 654.373C704.349 659.451 702.162 664.826 691.838 665.086C679.81 665.327 674.805 664.845 677.845 661.898Z" fill="#6756D8"/>
<path d="M711.169 632.725C711.744 628.017 711.929 619.751 711.929 619.751L692.338 621.938C692.338 621.938 694.711 631.205 692.746 638.23C702.625 635.709 711.169 632.725 711.169 632.725Z" fill="#6756D8"/>
<path d="M653.343 212.113C653.2 212.239 653.044 212.35 652.88 212.446C650.628 214.168 648.058 215.428 645.318 216.153C637.311 218.007 631.844 216.913 628.266 213.28C623.281 207.85 622.02 198.231 622.706 186.61C622.831 181.988 623.689 177.415 625.245 173.062V172.858C625.3 172.686 625.369 172.519 625.449 172.357C626.431 169.904 628.01 167.734 630.043 166.044C632.075 164.355 634.497 163.199 637.089 162.682C639.341 162.188 641.64 161.933 643.946 161.923C666.632 161.682 670.691 199.269 653.343 212.113Z" fill="#EBB376"/>
<path opacity="0.2" d="M652.879 212.447C650.609 214.069 648.039 215.222 645.318 215.838C637.311 217.692 631.843 216.32 628.266 212.651C633.055 213.837 638.101 213.42 642.63 211.464C645.873 209.982 649.469 210.741 652.879 212.447Z" fill="black"/>
<path d="M655.178 232.89C656.568 239.34 648.228 241.971 648.228 241.971C634.568 236.133 632.047 228.868 632.047 228.868C643.427 222.937 640.128 206.126 640.128 206.126L642.445 207.276L658.718 210.445C658.718 210.445 654.196 219.119 653.602 221.083C650.526 231.463 655.178 232.89 655.178 232.89Z" fill="#EBB376"/>
<path d="M625.245 172.913C625.245 172.913 623.985 188.778 639.035 195.599C639.035 195.599 645.484 212.094 655.011 212.28C667.985 212.613 679.383 194.153 674.898 175.378C669.078 151.08 632.158 149.06 625.245 172.913Z" fill="#263238"/>
<path d="M631.417 191.04C631.417 188.575 633.419 184.404 637.256 184.979C641.092 185.554 643.446 195.377 633.66 197.564C632.344 197.879 631.399 196.211 631.417 191.04Z" fill="#EBB376"/>
<path d="M652.879 156.047C652.879 156.047 637.737 152.211 629.36 158.29C619.592 165.407 615.885 172.765 627.506 184.238C627.506 184.238 652.935 175.99 661.387 177.751C666.331 178.752 671.185 180.159 675.899 181.958C677.622 165.111 661.331 152.6 652.879 156.047Z" fill="#263238"/>
<path d="M632.047 156.77C632.993 154.509 634.92 149.597 640.647 152.303C646.374 155.009 650.581 149.134 654.251 150.116C657.921 151.099 661.665 155.195 664.093 154.843C665.307 154.646 666.55 154.712 667.737 155.038C668.923 155.364 670.026 155.941 670.97 156.73C671.914 157.519 672.677 158.502 673.208 159.613C673.738 160.723 674.024 161.934 674.046 163.164C674.49 171.078 681.459 171.375 682.108 176.009C682.757 180.642 679.661 182.607 682.108 187.018C684.554 191.429 688.224 191.336 685.296 197.601C682.367 203.865 678.939 205.515 682.608 210.686C686.278 215.857 683.572 220.75 678.197 222.937C678.197 222.937 671.117 215.857 667.688 218.785C664.259 221.714 656.864 225.587 653.602 221.083C653.042 220.249 652.291 219.559 651.412 219.072C650.532 218.584 649.55 218.313 648.545 218.28C647.54 218.248 646.542 218.455 645.632 218.884C644.723 219.314 643.929 219.953 643.316 220.75C642.037 223.178 635.902 218.785 632.047 218.785C628.192 218.785 626.135 223.141 626.135 223.141C626.135 223.141 620.908 221.714 622.521 213.67C624.133 205.626 627.71 183.107 625.208 176.75C622.706 170.393 632.047 156.77 632.047 156.77Z" fill="#263238"/>
<path d="M609.862 231.333C609.862 231.333 627.933 225.254 655.178 232.667C682.423 240.081 679.661 249.589 679.661 249.589C679.661 249.589 659.088 286.472 656.382 328.266L597.889 322.576C597.889 322.576 591.439 256.428 609.862 231.333Z" fill="#263238"/>
<path d="M595.628 326.357L596.795 314.847L658.718 321.056L657.42 330.082C680.736 371.376 675.102 418.453 675.102 418.453L677.919 441.62C677.919 441.62 672.081 445.234 632.844 447.792C598.352 450.053 589.586 446.476 589.586 446.476C577.353 374.823 587.862 340.721 595.628 326.357Z" fill="#6756D8"/>
<path opacity="0.6" d="M677.901 441.62C677.901 441.62 672.062 445.235 632.826 447.792C598.334 450.053 589.567 446.476 589.567 446.476C589.159 444.104 588.789 441.787 588.437 439.508C581.023 391.801 584.007 361.664 589.085 343.26C590.615 337.395 592.81 331.723 595.628 326.357L596.054 322.205L596.796 314.792L658.718 321.001L657.421 330.027C680.736 371.321 675.102 418.397 675.102 418.397L677.326 436.746L677.901 441.62Z" fill="white"/>
<path d="M622.409 327.154L594.553 324.948L594.923 316.515L623.04 319.462L622.409 327.154Z" fill="#263238"/>
<path d="M650.303 329.36L624.411 327.321L625.041 319.666L650.859 322.372L650.303 329.36Z" fill="#263238"/>
<path d="M652.861 322.576L659.44 323.28L658.606 330.027L652.305 329.526L652.861 322.576Z" fill="#263238"/>
<path opacity="0.3" d="M637.904 364.759C637.774 369.411 637.607 372.933 637.607 372.933L625.579 382.756L605.062 373.674C605.423 370.456 605.596 367.22 605.581 363.981C605.673 357.031 605.395 349.006 605.21 344.65C605.117 342.667 605.062 341.444 605.062 341.444L637.607 345.317C637.7 346.003 637.774 346.819 637.83 347.708C638.144 353.387 638.169 359.078 637.904 364.759Z" fill="white"/>
<path opacity="0.3" d="M669.412 372.692L661.59 381.681L649.858 374.156C649.843 371.314 649.676 368.474 649.358 365.649C648.72 359.704 647.774 353.796 646.522 347.949C646.17 346.3 645.948 345.317 645.948 345.317H663.296C663.462 345.818 663.648 346.318 663.796 346.837C665.563 352.387 666.968 358.046 668.003 363.777C668.93 369.004 669.412 372.692 669.412 372.692Z" fill="white"/>
<path opacity="0.15" d="M637.904 364.76C637.774 369.412 637.607 372.933 637.607 372.933L625.579 382.756L605.062 373.674C605.423 370.456 605.596 367.22 605.581 363.981C612.94 365.195 619.614 369.025 624.374 374.768C625.778 372.226 627.714 370.016 630.048 368.289C632.383 366.562 635.062 365.358 637.904 364.76Z" fill="black"/>
<path opacity="0.15" d="M605.247 344.65C605.154 342.667 605.099 341.444 605.099 341.444L637.644 345.317C637.737 346.003 637.811 346.819 637.867 347.708L605.247 344.65Z" fill="black"/>
<path opacity="0.15" d="M663.852 346.837L646.578 347.949C646.226 346.3 646.003 345.317 646.003 345.317H663.351C663.445 345.845 663.613 346.357 663.852 346.837Z" fill="black"/>
<path opacity="0.15" d="M669.412 372.692L661.59 381.681L649.858 374.156C649.843 371.314 649.676 368.474 649.358 365.649C652.055 366.506 654.54 367.926 656.649 369.814C658.758 371.702 660.442 374.016 661.59 376.603C661.59 376.603 661.776 368.022 668.003 363.777C668.93 369.004 669.412 372.692 669.412 372.692Z" fill="black"/>
<path opacity="0.15" d="M677.9 441.62C677.9 441.62 672.062 445.235 632.826 447.792C598.334 450.053 589.567 446.476 589.567 446.476C589.159 444.104 588.789 441.787 588.437 439.507L592.032 439.674C590.29 425.014 585.212 375.102 592.866 347.708C591.526 346.316 590.287 344.829 589.159 343.26C590.689 337.395 592.884 331.723 595.702 326.357L596.128 322.205C597.376 322.301 598.614 322.487 599.835 322.761V324.615C599.835 324.615 590.735 357.068 590.735 389.206C590.694 406.171 591.977 423.113 594.571 439.878C622.186 440.866 649.836 439.869 677.307 436.894L677.9 441.62Z" fill="black"/>
<g opacity="0.3">
<path opacity="0.3" d="M622.409 327.154L594.553 324.948L594.923 316.515L623.04 319.462L622.409 327.154Z" fill="white"/>
<path opacity="0.3" d="M650.303 329.36L624.411 327.321L625.041 319.666L650.859 322.372L650.303 329.36Z" fill="white"/>
<path opacity="0.3" d="M652.861 322.576L659.44 323.28L658.606 330.027L652.305 329.526L652.861 322.576Z" fill="white"/>
</g>
<path d="M554.278 254.13L551.053 258.8C551.053 258.8 568.642 285.934 581.597 283.488C594.553 281.041 612.142 254.89 614.588 247.068C617.034 239.247 619.537 230.017 609.862 231.333C600.187 232.649 588.195 267.141 579.633 271.014C571.07 274.888 554.278 254.13 554.278 254.13Z" fill="#EBB376"/>
<path d="M210.86 171.357C210.86 171.357 240.069 171.635 248.391 175.749C256.713 179.864 230.617 207.683 222.165 202.883C213.714 198.083 202.705 182.959 210.86 171.357Z" fill="#6756D8"/>
<path opacity="0.2" d="M210.86 171.357C210.86 171.357 240.069 171.635 248.391 175.749C256.713 179.864 230.617 207.683 222.165 202.883C213.714 198.083 202.705 182.959 210.86 171.357Z" fill="black"/>
<path d="M210.712 647.534H191.937C191.631 647.535 191.333 647.64 191.094 647.832C190.855 648.024 190.688 648.291 190.621 648.591L187.526 662.361C187.466 662.655 187.464 662.957 187.521 663.251C187.577 663.545 187.691 663.825 187.856 664.075C188.021 664.325 188.233 664.54 188.481 664.707C188.729 664.875 189.008 664.992 189.301 665.053C189.327 665.058 189.353 665.063 189.379 665.067H189.88C195.959 664.956 200.389 664.585 208.025 664.585C212.714 664.585 226.911 665.086 233.398 665.086C239.885 665.086 240.811 658.673 238.068 658.08C226.151 655.485 217.181 651.89 213.363 648.461C212.635 647.816 211.683 647.483 210.712 647.534Z" fill="#6756D8"/>
<path d="M290.39 647.034H271.597C271.288 647.039 270.991 647.148 270.752 647.343C270.513 647.538 270.347 647.808 270.281 648.109L267.222 661.88C267.101 662.471 267.218 663.087 267.548 663.594C267.877 664.1 268.393 664.456 268.983 664.585H269.502C275.563 664.493 279.992 664.122 287.628 664.122C292.336 664.122 306.515 664.604 313.002 664.604C319.489 664.604 320.415 658.191 317.691 657.598C305.773 655.003 296.803 651.408 292.985 647.979C292.274 647.341 291.344 647.003 290.39 647.034Z" fill="#6756D8"/>
<path d="M200.759 299.353H282.828C290.631 341.981 315.059 514.997 297.526 649.35H269.725C269.725 649.35 272.301 445.309 247.78 379.365C244.944 414.579 216.272 649.221 216.272 649.221H188.008C188.008 649.221 192.234 560.98 196.459 477.632C199.128 425.107 200.648 310.103 200.759 299.353Z" fill="white" stroke="#263238" stroke-linecap="round" stroke-linejoin="round"/>
<path opacity="0.2" d="M247.799 379.346C251.837 390.902 254.905 402.774 256.973 414.839C259.253 383.442 250.079 350.136 250.079 350.136L247.799 379.346Z" fill="black"/>
<path d="M186.006 181.513C212.619 178.766 239.451 178.896 266.036 181.902C266.036 181.902 279.696 244.455 281.067 304.227H198.442C198.442 304.227 198.368 219.842 186.006 181.513Z" fill="#6756D8"/>
<path opacity="0.6" d="M186.006 181.513C212.619 178.766 239.451 178.896 266.036 181.902C266.036 181.902 279.696 244.455 281.067 304.227H198.442C198.442 304.227 198.368 219.842 186.006 181.513Z" fill="white"/>
<path d="M215.067 183.163C222.166 189.613 239.551 187.24 239.551 187.24C239.551 187.24 250.412 184.256 248.132 180.865C241.738 179.808 238.643 176.824 237.364 173.006C236.664 170.64 236.443 168.157 236.715 165.704C236.821 164.336 237.001 162.975 237.253 161.626L215.753 145.706C218.57 156.214 222.018 175.545 215.067 183.163Z" fill="#E4897B"/>
<path opacity="0.2" d="M220.72 155.825C221.572 168.799 232.174 172.283 237.4 173.006C236.7 170.64 236.48 168.157 236.752 165.704L220.72 155.825Z" fill="black"/>
<path d="M259.808 115.866C259.808 115.866 263.014 136.568 252.042 144.556C241.07 152.545 240.922 114.012 240.922 114.012L259.808 115.866Z" fill="#263238"/>
<path d="M220.201 161.107C222.521 164.505 225.89 167.049 229.793 168.351C233.695 169.653 237.917 169.641 241.812 168.317C246.885 166.701 251.148 163.206 253.729 158.55C254.09 157.905 254.418 157.244 254.712 156.566C260.086 143.889 261.736 121.741 248.336 113.493C243.757 110.643 238.235 109.723 232.979 110.935C227.723 112.147 223.162 115.393 220.294 119.962C218.581 122.667 217.539 125.743 217.254 128.932C215.66 143.667 214.029 152.359 220.201 161.107Z" fill="#E4897B"/>
<path d="M238.847 136.772C238.569 137.94 239.106 139.052 239.903 139.182C240.7 139.311 241.478 138.44 241.756 137.235C242.034 136.031 241.478 134.974 240.7 134.845C239.922 134.715 239.069 135.567 238.847 136.772Z" fill="#263238"/>
<path d="M252.395 139.052C252.117 140.219 252.673 141.313 253.451 141.443C254.23 141.572 255.027 140.701 255.305 139.589C255.583 138.477 255.027 137.31 254.248 137.18C253.47 137.05 252.562 137.903 252.395 139.052Z" fill="#263238"/>
<path d="M247.966 138.903C248.787 142.775 250.134 146.517 251.969 150.024C251.048 150.471 250.04 150.713 249.016 150.732C247.992 150.752 246.976 150.548 246.038 150.135L247.966 138.903Z" fill="#DE5753"/>
<path d="M258.344 134.103C258.22 134.148 258.086 134.159 257.956 134.136C257.826 134.114 257.704 134.057 257.603 133.973C256.949 133.367 256.163 132.922 255.307 132.674C254.451 132.427 253.549 132.383 252.673 132.546C252.491 132.587 252.301 132.559 252.139 132.466C251.978 132.373 251.857 132.223 251.801 132.046C251.751 131.866 251.774 131.673 251.866 131.511C251.958 131.348 252.11 131.228 252.29 131.178L252.302 131.175C253.405 130.944 254.547 130.98 255.634 131.28C256.72 131.58 257.719 132.135 258.548 132.898C258.69 133.02 258.779 133.193 258.797 133.38C258.814 133.567 258.758 133.753 258.641 133.899C258.556 133.986 258.455 134.055 258.344 134.103Z" fill="#263238"/>
<path d="M237.086 130.934C236.946 130.901 236.818 130.83 236.715 130.73C236.617 130.57 236.586 130.377 236.627 130.194C236.669 130.01 236.78 129.85 236.938 129.748C237.893 129.137 238.983 128.767 240.113 128.67C241.243 128.574 242.379 128.752 243.425 129.192C243.588 129.279 243.712 129.425 243.771 129.601C243.83 129.777 243.818 129.969 243.74 130.137C243.652 130.301 243.507 130.426 243.332 130.488C243.157 130.549 242.965 130.543 242.794 130.471C241.962 130.15 241.066 130.028 240.177 130.115C239.289 130.202 238.434 130.495 237.679 130.971C237.484 131.038 237.271 131.024 237.086 130.934Z" fill="#263238"/>
<path d="M231.099 112.437V119.035C229.933 119.431 228.959 120.252 228.372 121.334C227.784 122.416 227.626 123.68 227.93 124.873C229.375 130.6 225.261 138.718 220.646 141.554C220.646 141.554 220.812 139.163 218.792 139.496C216.772 139.83 215.808 152.248 219.015 158.605C219.015 158.605 213.732 152.563 211.935 139.2C210.285 126.819 211.082 116.774 214.103 112.418L231.099 112.437Z" fill="#263238"/>
<path d="M208.821 139.96C209.35 141.739 210.225 143.396 211.396 144.837C212.566 146.278 214.009 147.473 215.642 148.356C220.034 150.691 223.296 147.021 223.055 142.332C222.74 138.162 220.127 131.787 215.271 131.434C210.415 131.082 207.561 135.475 208.821 139.96Z" fill="#E4897B"/>
<path d="M244.5 153.842C243.462 155.417 242.539 157.064 241.738 158.772C241.412 158.697 241.09 158.604 240.774 158.494C236.437 157.234 234.862 155.214 234.399 153.36C234.172 152.454 234.172 151.505 234.399 150.598C234.511 150.086 234.698 149.592 234.955 149.134C237.286 151.1 240.009 152.547 242.943 153.379C243.907 153.694 244.5 153.842 244.5 153.842Z" fill="#263238"/>
<path d="M243.017 153.379L242.164 154.824C238.087 153.601 235.381 152.211 234.473 150.598C234.585 150.086 234.772 149.592 235.029 149.134C237.36 151.1 240.083 152.547 243.017 153.379Z" fill="white"/>
<path d="M240.774 158.494C236.437 157.234 234.862 155.214 234.398 153.36C236.039 153.871 237.576 154.668 238.939 155.714C239.826 156.426 240.468 157.399 240.774 158.494Z" fill="#DE5753"/>
<path d="M231.117 119.035C231.117 119.035 264.052 130.285 260.253 108.081C260.253 108.081 242.497 97.591 226.891 100.538C211.286 103.485 212.62 119.517 212.62 119.517L231.117 119.035Z" fill="#263238"/>
<path d="M210.767 176.843C210.767 176.843 212.973 252.406 196.441 323.707L186.006 314.736C186.006 314.736 191.01 224.846 186.006 181.513L210.767 176.843Z" fill="#6756D8"/>
<path d="M248.392 178.066C248.392 178.066 269.928 213.892 279.492 321.297L287.943 317.127C287.943 317.127 278.306 214.207 266.036 181.828L248.392 178.066Z" fill="#6756D8"/>
<path opacity="0.2" d="M196.441 323.707L186.006 314.736C186.006 314.736 188.156 276.111 188.23 237.301C188.23 230.258 188.23 223.197 188.026 216.376C187.748 203.402 187.136 191.281 186.006 181.513L210.767 176.843C210.767 176.843 212.973 252.406 196.441 323.707Z" fill="white"/>
<path opacity="0.2" d="M248.392 178.066C248.392 178.066 269.928 213.892 279.492 321.297L287.943 317.127C287.943 317.127 278.306 214.207 266.036 181.828L248.392 178.066Z" fill="white"/>
<path d="M210.86 171.357C210.86 171.357 212.713 177.64 216.643 180.29L210.786 195.562V187.129L209.118 190.836L201.815 178.603L210.86 171.357Z" fill="#6756D8"/>
<path d="M242.627 173.989C242.627 173.989 249.281 175.953 254.748 192.523V185.739L260.568 188.612C260.568 188.612 252.191 177.38 250.133 176.027C247.753 174.959 245.22 174.271 242.627 173.989Z" fill="#6756D8"/>
<path d="M255.675 226.848C255.688 227.025 255.665 227.203 255.609 227.371C255.553 227.54 255.464 227.696 255.348 227.83C255.231 227.964 255.09 228.074 254.931 228.154C254.772 228.233 254.599 228.28 254.421 228.293L254.415 228.293L218.552 230.443C218.203 230.463 217.861 230.344 217.601 230.112C217.34 229.879 217.183 229.553 217.163 229.205L217.162 229.183L216.42 216.45L215.679 203.773C215.669 203.598 215.694 203.423 215.752 203.257C215.81 203.092 215.9 202.94 216.016 202.809C216.133 202.678 216.275 202.572 216.432 202.496C216.59 202.42 216.762 202.376 216.937 202.366L216.976 202.364L252.321 201.401C252.661 201.39 252.991 201.512 253.244 201.74C253.496 201.968 253.65 202.285 253.674 202.624L254.693 214.93L255.675 226.848Z" fill="#6756D8"/>
<path opacity="0.4" d="M255.675 226.848C255.688 227.025 255.665 227.203 255.609 227.371C255.553 227.54 255.464 227.696 255.348 227.83C255.231 227.964 255.09 228.074 254.931 228.154C254.772 228.233 254.599 228.28 254.421 228.293L254.415 228.293L218.552 230.443C218.203 230.463 217.861 230.344 217.601 230.112C217.34 229.879 217.183 229.553 217.163 229.205L217.162 229.183L216.42 216.45L215.679 203.773C215.669 203.598 215.694 203.423 215.752 203.257C215.81 203.092 215.9 202.94 216.016 202.809C216.133 202.678 216.275 202.572 216.432 202.496C216.59 202.42 216.762 202.376 216.937 202.366L216.976 202.364L252.321 201.401C252.661 201.39 252.991 201.512 253.244 201.74C253.496 201.968 253.65 202.285 253.674 202.624L254.693 214.93L255.675 226.848Z" fill="white"/>
<path opacity="0.2" d="M255.675 226.848C255.688 227.025 255.665 227.203 255.609 227.371C255.553 227.54 255.464 227.696 255.347 227.83C255.231 227.964 255.089 228.074 254.93 228.153C254.771 228.233 254.598 228.28 254.421 228.293L254.415 228.293L218.551 230.443C218.203 230.463 217.861 230.344 217.6 230.112C217.34 229.879 217.182 229.553 217.162 229.205L217.161 229.183L216.42 216.45C218.737 211.631 221.832 206.256 223.982 206.33C227.893 206.46 226.039 218.73 228.041 220.398C230.043 222.066 236.01 210.593 236.678 211.705C237.345 212.817 237.178 216.728 237.475 217.692C237.697 218.377 248.595 216.209 254.693 214.93L255.675 226.848Z" fill="black"/>
<path opacity="0.3" d="M188.23 237.301C188.23 230.258 188.23 223.196 188.026 216.376C189.398 213.373 190.343 211.409 190.343 211.409C191.795 215.637 192.357 220.12 191.994 224.576C191.63 229.032 190.349 233.364 188.23 237.301Z" fill="black"/>
<path d="M173.032 204.421C173.032 204.421 153.145 251.609 149.253 251.164C145.36 250.72 140.801 239.21 140.801 239.21L131.349 243.751C131.349 243.751 138.447 261.821 149.253 266.714C160.058 271.607 182.466 224.92 182.466 224.92L173.032 204.421Z" fill="#6756D8"/>
<path opacity="0.6" d="M173.032 204.421C173.032 204.421 153.145 251.609 149.253 251.164C145.36 250.72 140.801 239.21 140.801 239.21L131.349 243.751C131.349 243.751 138.447 261.821 149.253 266.714C160.058 271.607 182.466 224.92 182.466 224.92L173.032 204.421Z" fill="white"/>
<path d="M186.006 181.513C181.039 183.756 156.907 228.423 156.907 228.423L177.536 242.991L187.618 228.423C187.618 228.423 190.028 227.274 190.028 211.501C189.912 201.379 188.561 191.308 186.006 181.513Z" fill="#6756D8"/>
<path d="M377.938 376.864L377.702 377.196C377.293 377.772 377.429 378.571 378.005 378.979L386.394 384.932C386.97 385.341 387.768 385.205 388.177 384.629L388.413 384.297C388.821 383.721 388.686 382.923 388.11 382.514L379.721 376.561C379.145 376.152 378.347 376.288 377.938 376.864Z" fill="#263238"/>
<path d="M133.694 191.606L122.088 207.96L110.722 199.895C109.03 198.694 107.885 196.871 107.537 194.826C107.19 192.781 107.669 190.681 108.87 188.99L111.422 185.392C112.017 184.555 112.77 183.842 113.64 183.296C114.51 182.749 115.479 182.38 116.491 182.208C117.504 182.036 118.54 182.065 119.542 182.293C120.543 182.522 121.49 182.946 122.327 183.54L133.694 191.606Z" fill="#263238"/>
<path d="M346.177 383.053L383.412 383.553L385.729 380.291L372.866 345.299C361.577 343.105 350.878 338.551 341.47 331.936L130.311 184.442C129.771 184.065 129.105 183.916 128.456 184.027C127.808 184.138 127.229 184.5 126.845 185.035L113.649 203.569C113.265 204.104 113.11 204.77 113.218 205.42C113.325 206.07 113.687 206.651 114.222 207.034L114.223 207.035L323.158 357.698C332.519 364.395 340.362 372.99 346.177 382.923L346.177 383.053Z" fill="#263238"/>
<path opacity="0.3" d="M346.159 383.053C340.365 373.111 332.532 364.508 323.177 357.809L272.782 321.483L271.04 320.222L269.317 318.981L130.441 218.897L128.717 217.636L126.975 216.395L114.205 207.128C113.942 206.938 113.719 206.699 113.549 206.424C113.378 206.149 113.264 205.843 113.212 205.523C113.16 205.204 113.171 204.877 113.245 204.562C113.319 204.247 113.455 203.95 113.644 203.687L113.649 203.68L126.845 185.146C127.222 184.61 127.797 184.244 128.443 184.13C129.088 184.015 129.753 184.161 130.292 184.534L143.266 193.542L145.12 194.784L146.88 196.007L287.239 293.978L290.76 296.425L341.674 331.973C346.431 335.297 351.518 338.123 356.853 340.406C362.071 342.636 367.514 344.295 373.089 345.355L373.663 346.893L374.553 349.339L385.877 380.328L383.561 383.59L350.551 383.164H347.938L346.159 383.053Z" fill="white"/>
<path d="M292.877 316.348L292.373 317.058C291.472 318.327 291.771 320.085 293.04 320.986L337.07 352.23C338.339 353.131 340.097 352.832 340.998 351.563L341.502 350.853C342.402 349.584 342.104 347.825 340.835 346.925L296.804 315.68C295.536 314.78 293.777 315.079 292.877 316.348Z" fill="#263238"/>
<g opacity="0.2">
<path opacity="0.2" d="M347.79 383.071L373.515 346.837L374.405 349.284L350.403 383.108L347.79 383.071Z" fill="black"/>
</g>
<g opacity="0.2">
<path opacity="0.2" d="M290.612 296.387L287.091 293.941L269.316 318.98L271.059 320.241L272.782 321.501L290.612 296.387Z" fill="black"/>
</g>
<g opacity="0.2">
<path opacity="0.2" d="M146.75 195.951L144.897 194.728L143.155 193.486L126.919 216.357L128.772 217.599L130.496 218.859L146.75 195.951Z" fill="black"/>
</g>
<path d="M291.78 287.917L290.038 291.087C288.871 290.978 287.694 291.112 286.581 291.479C285.469 291.845 284.443 292.437 283.569 293.218C283.569 293.218 284.793 300.465 285.219 301.392C286.183 303.43 296.654 308.435 299.175 308.416C299.972 308.416 300.713 303.097 300.231 301.392C299.079 299.175 297.666 297.103 296.024 295.22L297.451 292.421L291.78 287.917Z" fill="#E4897B"/>
<path d="M270.633 198.176C270.633 198.176 302.715 221.325 311.908 246.624C318.803 265.64 298.174 295.35 298.174 295.35L289.463 288.918C289.463 288.918 303.957 260.932 300.25 249.237C296.543 237.542 278.843 225.94 278.843 225.94L270.633 198.176Z" fill="#6756D8"/>
<path opacity="0.6" d="M270.633 198.176C270.633 198.176 302.715 221.325 311.908 246.624C318.803 265.64 298.174 295.35 298.174 295.35L289.463 288.918C289.463 288.918 303.957 260.932 300.25 249.237C296.543 237.542 278.843 225.94 278.843 225.94L270.633 198.176Z" fill="white"/>
<path d="M302.066 223.363L291.724 241.082L286.627 238.876L278.028 235.169L273.061 213.132L266.036 181.958C274.636 186.035 302.066 223.363 302.066 223.363Z" fill="#6756D8"/>
<path d="M139.763 239.729L137.632 232.927C137.632 232.927 140.782 232.278 140.801 229.498C140.82 226.718 140.523 219.897 139.207 218.544C135.96 215.95 132.529 213.596 128.939 211.501C127.308 210.667 125.547 216.913 125.473 219.638C125.399 222.362 131.349 231.296 131.349 231.296L133.777 242.583L139.763 239.729Z" fill="#E4897B"/>
<path opacity="0.2" d="M286.627 238.839L278.028 235.132L273.061 213.095C278.343 218.86 286.312 229.053 286.627 238.839Z" fill="black"/>
</svg>
