<svg width="100" height="101" viewBox="0 0 100 101" fill="none" xmlns="http://www.w3.org/2000/svg">
<path d="M50.0001 97.7414C76.2277 97.7414 97.4895 76.4797 97.4895 50.2521C97.4895 24.0244 76.2277 2.7627 50.0001 2.7627C23.7724 2.7627 2.51074 24.0244 2.51074 50.2521C2.51074 76.4797 23.7724 97.7414 50.0001 97.7414Z" fill="#FBB03B" stroke="white" stroke-width="5" stroke-miterlimit="10"/>
<path d="M68.5841 47.9226C68.5538 47.7326 68.4864 47.5506 68.3857 47.3867C68.285 47.2227 68.1531 47.0802 67.9973 46.9673C67.8416 46.8544 67.6651 46.7733 67.478 46.7286C67.291 46.6839 67.0969 46.6765 66.9069 46.7068C66.717 46.7372 66.5349 46.8046 66.371 46.9053C66.2071 47.006 66.0646 47.138 65.9517 47.2938C65.8389 47.4495 65.7578 47.626 65.7132 47.8131C65.6685 48.0002 65.6611 48.1943 65.6915 48.3842L65.6959 48.4103C66.3453 52.2333 65.5953 56.1622 63.5834 59.4771C61.5715 62.792 58.4324 65.2708 54.7414 66.4594C51.0503 67.6479 47.0546 67.4667 43.4864 65.9487C39.9182 64.4307 37.0165 61.6776 35.3131 58.1942C33.6097 54.7107 33.2186 50.73 34.2116 46.9816C35.2045 43.2332 37.515 39.9682 40.7196 37.7849C43.9242 35.6015 47.8082 34.6461 51.66 35.0937C55.5117 35.5413 59.0733 37.3619 61.6918 40.2219L55.2038 42.3835C54.8352 42.5062 54.5305 42.7702 54.3566 43.1175C54.1827 43.4648 54.1538 43.867 54.2764 44.2355L54.2768 44.2361C54.3994 44.6047 54.6634 44.9095 55.0107 45.0834C55.358 45.2573 55.7602 45.2861 56.1287 45.1635L56.1294 45.1633L64.9168 42.2342C65.2086 42.137 65.4623 41.9504 65.6421 41.701C65.8219 41.4515 65.9186 41.1519 65.9186 40.8444V32.0569C65.9186 31.6684 65.7643 31.296 65.4896 31.0213C65.215 30.7466 64.8424 30.5923 64.454 30.5923C64.0656 30.5923 63.693 30.7466 63.4184 31.0213C63.1437 31.296 62.9894 31.6684 62.9894 32.0569V37.4069C59.7463 34.3223 55.5113 32.4925 51.0423 32.245C46.5734 31.9975 42.1622 33.3484 38.5983 36.056C35.0344 38.7636 32.5503 42.6512 31.5907 47.0229C30.631 51.3946 31.2585 55.9651 33.3608 59.9164C35.4631 63.8678 38.9028 66.9421 43.0646 68.5891C47.2264 70.236 51.8384 70.3482 56.0753 68.9055C60.3122 67.4628 63.8974 64.5593 66.1893 60.7148C68.4811 56.8703 69.33 52.3357 68.5841 47.9225V47.9226Z" fill="white"/>
</svg>
