<svg width="59" height="55" viewBox="0 0 59 55" fill="none" xmlns="http://www.w3.org/2000/svg">
<path d="M57.2027 27.1315C56.9832 27.1306 56.7656 27.1731 56.5626 27.2567C56.3596 27.3403 56.1751 27.4633 56.0199 27.6185C55.8647 27.7738 55.7417 27.9581 55.6581 28.1611C55.5746 28.3641 55.532 28.5817 55.5329 28.8013V43.9901C55.5302 45.9739 54.741 47.8758 53.3382 49.2786C51.9354 50.6813 50.0336 51.4705 48.0498 51.4731H11.4135C9.42969 51.4705 7.52784 50.6813 6.12506 49.2786C4.72228 47.8758 3.93307 45.9739 3.93042 43.9901V28.5538C3.92934 28.1117 3.75291 27.6881 3.43988 27.3759C3.12685 27.0636 2.70277 26.8882 2.26062 26.8882C1.81847 26.8882 1.39439 27.0636 1.08136 27.3759C0.768332 27.6881 0.591902 28.1117 0.59082 28.5538V43.9901C0.593967 46.8595 1.73526 49.6104 3.76422 51.6394C5.79318 53.6684 8.54413 54.8096 11.4135 54.8127H48.0498C50.9192 54.8096 53.6701 53.6684 55.6991 51.6394C57.7281 49.6104 58.8693 46.8595 58.8724 43.9901V28.8013C58.8722 28.3585 58.6962 27.9339 58.3831 27.6208C58.07 27.3078 57.6455 27.1317 57.2027 27.1315Z" fill="white"/>
<path d="M20.2942 14.268L28.0618 6.5004V40.3785C28.0618 40.8213 28.2376 41.2461 28.5508 41.5592C28.8639 41.8724 29.2887 42.0483 29.7315 42.0483C30.1744 42.0483 30.5991 41.8724 30.9122 41.5592C31.2254 41.2461 31.4013 40.8213 31.4013 40.3785V6.5004L39.1689 14.268C39.4804 14.5808 39.9024 14.7585 40.3439 14.7627C40.5631 14.7647 40.7804 14.7218 40.9825 14.6368C41.1845 14.5517 41.367 14.4261 41.5189 14.268C41.6747 14.1132 41.7984 13.9293 41.8828 13.7266C41.9671 13.5239 42.0106 13.3064 42.0106 13.0868C42.0106 12.8672 41.9671 12.6498 41.8828 12.4471C41.7984 12.2443 41.6747 12.0603 41.5189 11.9056L30.9065 1.29325C30.5945 0.981221 30.1728 0.803648 29.7315 0.798498C29.5124 0.797041 29.2952 0.840157 29.0932 0.925207C28.8912 1.01026 28.7086 1.13547 28.5565 1.29325L17.9441 11.9056C17.6319 12.2174 17.4562 12.6404 17.4556 13.0817C17.4549 13.523 17.6293 13.9465 17.9405 14.2593C18.2517 14.5721 18.6743 14.7488 19.1155 14.7504C19.5568 14.752 19.9807 14.5785 20.2942 14.268Z" fill="white"/>
</svg>
