<svg width="60" height="60" viewBox="0 0 60 60" fill="none" xmlns="http://www.w3.org/2000/svg">
<path d="M50.8782 38.4005C47.7081 35.2184 43.8541 32.801 39.6094 31.3323C42.6271 29.2615 44.903 26.2794 46.104 22.8221C47.305 19.3649 47.3681 15.6142 46.2841 12.1185C45.2 8.62286 43.0258 5.56576 40.0794 3.39465C37.1331 1.22355 33.5692 0.0523682 29.9093 0.0523682C26.2494 0.0523682 22.6856 1.22355 19.7392 3.39465C16.7929 5.56576 14.6186 8.62286 13.5346 12.1185C12.4506 15.6142 12.5137 19.3649 13.7147 22.8221C14.9157 26.2794 17.1915 29.2615 20.2093 31.3323C14.3842 33.3559 9.3335 37.1425 5.75784 42.1665C2.18218 47.1905 0.25891 53.2029 0.254883 59.3694H4.88838C4.8863 56.0823 5.53195 52.8269 6.78844 49.7894C8.04492 46.7519 9.88762 43.9918 12.2112 41.6667C14.5348 39.3417 17.2938 37.4972 20.3305 36.2388C23.3672 34.9804 26.6222 34.3326 29.9093 34.3326C33.1964 34.3326 36.4513 34.9804 39.488 36.2388C42.5247 37.4972 45.2837 39.3417 47.6073 41.6667C49.9309 43.9918 51.7736 46.7519 53.0301 49.7894C54.2866 52.8269 54.9322 56.0823 54.9301 59.3694H59.5636C59.5743 55.4735 58.8121 51.6143 57.3212 48.015C55.8303 44.4157 53.6404 41.1478 50.8782 38.4005ZM29.9093 29.715C27.4349 29.715 25.0162 28.9812 22.9588 27.6066C20.9015 26.2319 19.298 24.278 18.3511 21.9921C17.4042 19.7061 17.1565 17.1907 17.6392 14.7639C18.1219 12.3371 19.3134 10.108 21.063 8.3584C22.8127 6.60878 25.0418 5.41717 27.4686 4.93445C29.8954 4.45173 32.4108 4.69948 34.6968 5.64636C36.9828 6.59325 38.9366 8.19682 40.3113 10.2542C41.686 12.3115 42.4197 14.7303 42.4197 17.2046C42.416 20.5214 41.0967 23.7013 38.7513 26.0466C36.406 28.392 33.2261 29.7112 29.9093 29.715Z" fill="white"/>
</svg>
